Dinish-Bold.ufo
<glyph name="parenleft" format="2">
  <advance width="317"/>
  <unicode hex="0028"/>
  <outline>
    <contour>
      <point x="271" y="-86" type="line"/>
      <point x="208.129" y="41.735"/>
      <point x="172" y="193.664"/>
      <point x="172" y="336" type="curve" smooth="yes"/>
      <point x="172" y="479.842"/>
      <point x="205.786" y="629.506"/>
      <point x="271" y="758" type="curve"/>
      <point x="179" y="758" type="line"/>
      <point x="91.017" y="631.489"/>
      <point x="46" y="490.187"/>
      <point x="46" y="336" type="curve" smooth="yes"/>
      <point x="46" y="182.625"/>
      <point x="92.201" y="40.725"/>
      <point x="178" y="-86" type="curve"/>
    </contour>
  </outline>
</glyph>
<glyph name="asterisk" format="2">
  <advance width="386"/>
  <unicode hex="002A"/>
  <outline>
    <contour>
      <point x="78" y="452" type="line"/>
      <point x="158" y="498" type="line"/>
      <point x="158" y="398" type="line"/>
      <point x="228" y="398" type="line"/>
      <point x="228" y="497" type="line"/>
      <point x="307" y="452" type="line"/>
      <point x="340" y="507" type="line"/>
      <point x="257" y="554" type="line"/>
      <point x="339" y="601" type="line"/>
      <point x="308" y="656" type="line"/>
      <point x="228" y="610" type="line"/>
      <point x="228" y="707" type="line"/>
      <point x="158" y="707" type="line"/>
      <point x="158" y="611" type="line"/>
      <point x="78" y="656" type="line"/>
      <point x="46" y="601" type="line"/>
      <point x="128" y="554" type="line"/>
      <point x="46" y="507" type="line"/>
    </contour>
  </outline>
</glyph>
<glyph name="plus" format="2">
  <advance width="541"/>
  <unicode hex="002B"/>
  <outline>
    <contour>
      <point x="49" y="224" type="line"/>
      <point x="213" y="224" type="line"/>
      <point x="213" y="60" type="line"/>
      <point x="330" y="60" type="line"/>
      <point x="330" y="224" type="line"/>
      <point x="493" y="224" type="line"/>
      <point x="493" y="341" type="line"/>
      <point x="330" y="341" type="line"/>
      <point x="330" y="505" type="line"/>
      <point x="213" y="505" type="line"/>
      <point x="213" y="341" type="line"/>
      <point x="49" y="341" type="line"/>
    </contour>
  </outline>
</glyph>
<glyph name="zero" format="2">
  <advance width="524"/>
  <unicode hex="0030"/>
  <outline>
    <contour>
      <point x="262" y="-11" type="curve" smooth="yes"/>
      <point x="418.603" y="-11"/>
      <point x="473" y="88.233"/>
      <point x="473" y="232" type="curve" smooth="yes"/>
      <point x="473" y="482" type="line" smooth="yes"/>
      <point x="473" y="624.535"/>
      <point x="414.571" y="718"/>
      <point x="262" y="718" type="curve" smooth="yes"/>
      <point x="112.315" y="718"/>
      <point x="51" y="621.936"/>
      <point x="51" y="482" type="curve" smooth="yes"/>
      <point x="51" y="232" type="line" smooth="yes"/>
      <point x="51" y="88.233"/>
      <point x="105.397" y="-11"/>
    </contour>
    <contour>
      <point x="262" y="105" type="curve" smooth="yes"/>
      <point x="194.38" y="105"/>
      <point x="186" y="188.058"/>
      <point x="186" y="244" type="curve" smooth="yes"/>
      <point x="186" y="463" type="line" smooth="yes"/>
      <point x="186" y="519.132"/>
      <point x="194.477" y="600"/>
      <point x="262" y="600" type="curve" smooth="yes"/>
      <point x="329.523" y="600"/>
      <point x="339" y="520.297"/>
      <point x="339" y="463" type="curve" smooth="yes"/>
      <point x="339" y="244" type="line" smooth="yes"/>
      <point x="339" y="187.044"/>
      <point x="329.62" y="105"/>
    </contour>
  </outline>
</glyph>
<glyph name="two" format="2">
  <advance width="504"/>
  <unicode hex="0032"/>
  <outline>
    <contour>
      <point x="49" y="0" type="line"/>
      <point x="459" y="0" type="line"/>
      <point x="459" y="118" type="line"/>
      <point x="218" y="118" type="line"/>
      <point x="394" y="346" type="line" smooth="yes"/>
      <point x="438.689" y="403.893"/>
      <point x="459" y="457.892"/>
      <point x="459" y="518.811" type="curve"/>
      <point x="458.855" y="527.71" type="line" smooth="yes"/>
      <point x="455.049" y="643.942"/>
      <point x="376.381" y="718"/>
      <point x="253.974" y="718" type="curve" smooth="yes"/>
      <point x="129.717" y="718"/>
      <point x="46" y="641.687"/>
      <point x="46" y="527" type="curve" smooth="yes"/>
      <point x="46" y="503" type="line"/>
      <point x="176.054" y="503" type="line"/>
      <point x="176.054" y="511.817" type="line" smooth="yes"/>
      <point x="176.054" y="573.934"/>
      <point x="201.337" y="604"/>
      <point x="247.822" y="604" type="curve" smooth="yes"/>
      <point x="294.126" y="604"/>
      <point x="322.941" y="574.795"/>
      <point x="322.941" y="522.453" type="curve" smooth="yes"/>
      <point x="322.941" y="516.128" type="line" smooth="yes"/>
      <point x="322.941" y="478.605"/>
      <point x="310.846" y="445.843"/>
      <point x="284" y="411" type="curve" smooth="yes"/>
      <point x="49" y="106" type="line"/>
    </contour>
  </outline>
</glyph>
<glyph name="five" format="2">
  <advance width="508"/>
  <unicode hex="0035"/>
  <outline>
    <contour>
      <point x="51.04" y="178" type="line"/>
      <point x="51.04" y="170.11" type="line" smooth="yes"/>
      <point x="51.04" y="53.298"/>
      <point x="122.031" y="-11"/>
      <point x="251" y="-11" type="curve" smooth="yes"/>
      <point x="380.781" y="-11"/>
      <point x="458" y="65.846"/>
      <point x="458" y="195" type="curve" smooth="yes"/>
      <point x="458" y="261" type="line" smooth="yes"/>
      <point x="458" y="391.584"/>
      <point x="393.221" y="465"/>
      <point x="278" y="465" type="curve" smooth="yes"/>
      <point x="239.146" y="465"/>
      <point x="203.376" y="453.313"/>
      <point x="177" y="432" type="curve"/>
      <point x="177" y="592" type="line"/>
      <point x="443" y="592" type="line"/>
      <point x="443" y="707" type="line"/>
      <point x="61" y="707" type="line"/>
      <point x="61" y="304" type="line"/>
      <point x="177" y="304" type="line"/>
      <point x="189.859" y="334.268"/>
      <point x="216.826" y="352"/>
      <point x="250" y="352" type="curve" smooth="yes"/>
      <point x="306.184" y="352"/>
      <point x="328.428" y="318.735"/>
      <point x="328.428" y="234.712" type="curve" smooth="yes"/>
      <point x="328.428" y="227.806" type="line" smooth="yes"/>
      <point x="328.428" y="137.434"/>
      <point x="306.62" y="102"/>
      <point x="251" y="102" type="curve" smooth="yes"/>
      <point x="203.287" y="102"/>
      <point x="174.079" y="128.531"/>
      <point x="174.079" y="171.872" type="curve" smooth="yes"/>
      <point x="174.079" y="178" type="line"/>
    </contour>
  </outline>
</glyph>
<glyph name="seven" format="2">
  <advance width="467"/>
  <unicode hex="0037"/>
  <outline>
    <contour>
      <point x="87" y="0" type="line"/>
      <point x="222" y="0" type="line"/>
      <point x="437" y="590" type="line"/>
      <point x="437" y="590.822"/>
      <point x="437" y="700.728"/>
      <point x="437" y="707" type="curve"/>
      <point x="31" y="707" type="line"/>
      <point x="31" y="590" type="line"/>
      <point x="306" y="590" type="line"/>
    </contour>
  </outline>
</glyph>
<glyph name="eight" format="2">
  <advance width="537"/>
  <unicode hex="0038"/>
  <outline>
    <contour>
      <point x="137" y="371" type="curve"/>
      <point x="84.128" y="339.65"/>
      <point x="51.592" y="281.365"/>
      <point x="51.592" y="218" type="curve" smooth="yes"/>
      <point x="51.592" y="188.039" type="line" smooth="yes"/>
      <point x="51.592" y="65.343"/>
      <point x="134.597" y="-11"/>
      <point x="268" y="-11" type="curve" smooth="yes"/>
      <point x="397.768" y="-11"/>
      <point x="485.692" y="72.605"/>
      <point x="485.692" y="196" type="curve" smooth="yes"/>
      <point x="485.692" y="218.311" type="line" smooth="yes"/>
      <point x="485.692" y="286.547"/>
      <point x="457.156" y="337.993"/>
      <point x="401" y="371" type="curve"/>
      <point x="446.915" y="399.359"/>
      <point x="473.711" y="449.478"/>
      <point x="473.711" y="507" type="curve" smooth="yes"/>
      <point x="473.711" y="526.221" type="line" smooth="yes"/>
      <point x="473.711" y="642.845"/>
      <point x="393.487" y="718"/>
      <point x="269" y="718" type="curve" smooth="yes"/>
      <point x="150.629" y="718"/>
      <point x="65.203" y="637.1"/>
      <point x="65.203" y="525" type="curve" smooth="yes"/>
      <point x="65.203" y="506.018" type="line" smooth="yes"/>
      <point x="65.203" y="443.106"/>
      <point x="88.536" y="399.226"/>
    </contour>
    <contour>
      <point x="194" y="506" type="curve" smooth="yes"/>
      <point x="194" y="525" type="line" smooth="yes"/>
      <point x="194" y="571.296"/>
      <point x="225.049" y="604"/>
      <point x="269" y="604" type="curve" smooth="yes"/>
      <point x="313.805" y="604"/>
      <point x="345" y="571.574"/>
      <point x="345" y="525" type="curve" smooth="yes"/>
      <point x="345" y="506" type="line" smooth="yes"/>
      <point x="345" y="456.704"/>
      <point x="314.689" y="424"/>
      <point x="269" y="424" type="curve" smooth="yes"/>
      <point x="223.062" y="424"/>
      <point x="194" y="455.774"/>
    </contour>
    <contour>
      <point x="181" y="197" type="curve" smooth="yes"/>
      <point x="181" y="221" type="line" smooth="yes"/>
      <point x="181" y="275"/>
      <point x="217.348" y="313"/>
      <point x="269" y="313" type="curve" smooth="yes"/>
      <point x="321.877" y="313"/>
      <point x="357" y="276.28"/>
      <point x="357" y="221" type="curve" smooth="yes"/>
      <point x="357" y="197" type="line" smooth="yes"/>
      <point x="357" y="140.132"/>
      <point x="321.677" y="102"/>
      <point x="269" y="102" type="curve" smooth="yes"/>
      <point x="217.427" y="102"/>
      <point x="181" y="141.325"/>
    </contour>
  </outline>
</glyph>
<glyph name="at" format="2">
  <advance width="893"/>
  <unicode hex="0040"/>
  <outline>
    <contour>
      <point x="659" y="15" type="line"/>
      <point x="589.403" y="-20.788"/>
      <point x="523.31" y="-37"/>
      <point x="447" y="-37" type="curve" smooth="yes"/>
      <point x="270.856" y="-37"/>
      <point x="161" y="74.392"/>
      <point x="161" y="253" type="curve" smooth="yes"/>
      <point x="161" y="326" type="line" smooth="yes"/>
      <point x="161" y="505.155"/>
      <point x="267.845" y="612"/>
      <point x="447" y="612" type="curve" smooth="yes"/>
      <point x="625.991" y="612"/>
      <point x="733.834" y="505.222"/>
      <point x="733.834" y="328" type="curve" smooth="yes"/>
      <point x="733.834" y="266.878" type="line" smooth="yes"/>
      <point x="733.834" y="188.825"/>
      <point x="714.623" y="150"/>
      <point x="676" y="150" type="curve" smooth="yes"/>
      <point x="642.744" y="150"/>
      <point x="626" y="171.432"/>
      <point x="626" y="214" type="curve" smooth="yes"/>
      <point x="626" y="506" type="line"/>
      <point x="514" y="506" type="line"/>
      <point x="514" y="465" type="line"/>
      <point x="495.57" y="497.882"/>
      <point x="456.598" y="517"/>
      <point x="408" y="517" type="curve" smooth="yes"/>
      <point x="311.328" y="517"/>
      <point x="260" y="452.494"/>
      <point x="260" y="331" type="curve" smooth="yes"/>
      <point x="260" y="241" type="line" smooth="yes"/>
      <point x="260" y="118.104"/>
      <point x="312.587" y="55"/>
      <point x="415" y="55" type="curve" smooth="yes"/>
      <point x="479.222" y="55"/>
      <point x="524.004" y="77.904"/>
      <point x="546" y="122" type="curve"/>
      <point x="570.71" y="78.604"/>
      <point x="616.157" y="55"/>
      <point x="675" y="55" type="curve" smooth="yes"/>
      <point x="781.128" y="55"/>
      <point x="848" y="133.082"/>
      <point x="848" y="257" type="curve" smooth="yes"/>
      <point x="848" y="329" type="line" smooth="yes"/>
      <point x="848" y="555.884"/>
      <point x="682.701" y="715"/>
      <point x="447" y="715" type="curve" smooth="yes"/>
      <point x="209.34" y="715"/>
      <point x="46" y="555.733"/>
      <point x="46" y="324" type="curve" smooth="yes"/>
      <point x="46" y="252" type="line" smooth="yes"/>
      <point x="46" y="20.267"/>
      <point x="209.34" y="-139"/>
      <point x="447" y="-139" type="curve" smooth="yes"/>
      <point x="546.677" y="-139"/>
      <point x="622.944" y="-119.194"/>
      <point x="705" y="-72" type="curve"/>
    </contour>
    <contour>
      <point x="444" y="152" type="curve" smooth="yes"/>
      <point x="397.287" y="152"/>
      <point x="375" y="182.685"/>
      <point x="375" y="247" type="curve" smooth="yes"/>
      <point x="375" y="331" type="line" smooth="yes"/>
      <point x="375" y="388.954"/>
      <point x="399.569" y="421"/>
      <point x="444" y="421" type="curve" smooth="yes"/>
      <point x="488.678" y="421"/>
      <point x="512" y="389.79"/>
      <point x="512" y="330" type="curve" smooth="yes"/>
      <point x="512" y="244" type="line" smooth="yes"/>
      <point x="512" y="184.119"/>
      <point x="488.26" y="152"/>
    </contour>
  </outline>
</glyph>
<glyph name="B" format="2">
  <advance width="612"/>
  <unicode hex="0042"/>
  <anchor x="275" y="776" name="top"/>
  <anchor x="275" y="-86" name="bottom"/>
  <outline>
    <contour>
      <point x="159.73" y="0" type="line"/>
      <point x="344" y="0" type="line" smooth="yes"/>
      <point x="474.605" y="0"/>
      <point x="561" y="67.573"/>
      <point x="561" y="203" type="curve" smooth="yes"/>
      <point x="561" y="273.899"/>
      <point x="529.988" y="334.697"/>
      <point x="463" y="364" type="curve"/>
      <point x="519.409" y="392.15"/>
      <point x="552" y="447.284"/>
      <point x="552" y="510" type="curve" smooth="yes"/>
      <point x="552" y="644.111"/>
      <point x="459.352" y="707"/>
      <point x="333" y="707" type="curve" smooth="yes"/>
      <point x="159.73" y="707" type="line"/>
      <point x="159.73" y="590" type="line"/>
      <point x="323" y="590" type="line" smooth="yes"/>
      <point x="380.374" y="590"/>
      <point x="417" y="561.622"/>
      <point x="417" y="502" type="curve" smooth="yes"/>
      <point x="417" y="443"/>
      <point x="378.147" y="418"/>
      <point x="323" y="418" type="curve" smooth="yes"/>
      <point x="159.73" y="418" type="line"/>
      <point x="159.73" y="301" type="line"/>
      <point x="331" y="301" type="line" smooth="yes"/>
      <point x="390.005" y="301"/>
      <point x="427" y="274.045"/>
      <point x="427" y="212" type="curve" smooth="yes"/>
      <point x="427" y="149.518"/>
      <point x="392.75" y="117"/>
      <point x="331" y="117" type="curve" smooth="yes"/>
      <point x="159.73" y="117" type="line"/>
    </contour>
    <contour>
      <point x="60" y="0" type="line"/>
      <point x="195" y="0" type="line"/>
      <point x="195" y="707.297" type="line"/>
      <point x="60" y="707" type="line"/>
    </contour>
  </outline>
</glyph>
<glyph name="C" format="2">
  <advance width="612"/>
  <unicode hex="0043"/>
  <anchor x="308" y="776" name="top"/>
  <anchor x="273" y="0" name="b.cedilla"/>
  <anchor x="236" y="-86" name="bottom"/>
  <outline>
    <contour>
      <point x="428.982" y="234" type="line"/>
      <point x="428.982" y="229.932" type="line" smooth="yes"/>
      <point x="428.982" y="154.335"/>
      <point x="388.414" y="112"/>
      <point x="311" y="112" type="curve" smooth="yes"/>
      <point x="209.924" y="112"/>
      <point x="186" y="188.633"/>
      <point x="186" y="275" type="curve" smooth="yes"/>
      <point x="186" y="428" type="line" smooth="yes"/>
      <point x="186" y="514.253"/>
      <point x="204.44" y="599"/>
      <point x="309" y="599" type="curve" smooth="yes"/>
      <point x="383.821" y="599"/>
      <point x="428.928" y="555.147"/>
      <point x="428.928" y="482.673" type="curve" smooth="yes"/>
      <point x="428.928" y="475" type="line"/>
      <point x="562.973" y="475" type="line"/>
      <point x="562.973" y="483.226" type="line" smooth="yes"/>
      <point x="562.973" y="636.43"/>
      <point x="461.248" y="717"/>
      <point x="310" y="717" type="curve" smooth="yes"/>
      <point x="126.586" y="717"/>
      <point x="51" y="609.164"/>
      <point x="51" y="435" type="curve" smooth="yes"/>
      <point x="51" y="273" type="line" smooth="yes"/>
      <point x="51" y="100.118"/>
      <point x="125.476" y="-8"/>
      <point x="308" y="-8" type="curve" smooth="yes"/>
      <point x="458.793" y="-8"/>
      <point x="561" y="69.462"/>
      <point x="561" y="227" type="curve" smooth="yes"/>
      <point x="561" y="234" type="line"/>
    </contour>
  </outline>
</glyph>
<glyph name="D" format="2">
  <advance width="614"/>
  <unicode hex="0044"/>
  <anchor x="275" y="776" name="top"/>
  <anchor x="274" y="-86" name="bottom"/>
  <outline>
    <contour>
      <point x="60" y="0" type="line"/>
      <point x="305" y="0" type="line" smooth="yes"/>
      <point x="488.25" y="0"/>
      <point x="563" y="108.424"/>
      <point x="563" y="282" type="curve" smooth="yes"/>
      <point x="563" y="426" type="line" smooth="yes"/>
      <point x="563" y="596.937"/>
      <point x="490.78" y="707"/>
      <point x="309" y="707" type="curve" smooth="yes"/>
      <point x="60" y="707" type="line"/>
    </contour>
    <contour>
      <point x="195" y="117" type="line"/>
      <point x="195" y="590" type="line"/>
      <point x="308" y="590" type="line" smooth="yes"/>
      <point x="410.264" y="590"/>
      <point x="429" y="502.864"/>
      <point x="429" y="419" type="curve" smooth="yes"/>
      <point x="429" y="283" type="line" smooth="yes"/>
      <point x="429" y="199.371"/>
      <point x="408.451" y="117"/>
      <point x="308" y="117" type="curve" smooth="yes"/>
    </contour>
  </outline>
</glyph>
<glyph name="O" format="2">
  <advance width="614"/>
  <unicode hex="004F"/>
  <anchor x="304" y="776" name="top"/>
  <anchor x="304" y="-86" name="bottom"/>
  <anchor x="256" y="0" name="b.cedilla"/>
  <outline>
    <contour>
      <point x="304" y="-8" type="curve" smooth="yes"/>
      <point x="472.785" y="-8"/>
      <point x="563" y="89.648"/>
      <point x="563" y="272.339" type="curve" smooth="yes"/>
      <point x="563" y="433.674" type="line" smooth="yes"/>
      <point x="563" y="619.12"/>
      <point x="474.906" y="717"/>
      <point x="308" y="717" type="curve" smooth="yes"/>
      <point x="140.166" y="717"/>
      <point x="51" y="618.7"/>
      <point x="51" y="433.674" type="curve" smooth="yes"/>
      <point x="51" y="272.339" type="line" smooth="yes"/>
      <point x="51" y="88.12"/>
      <point x="137.747" y="-8"/>
    </contour>
    <contour>
      <point x="305.646" y="112" type="curve" smooth="yes"/>
      <point x="225.165" y="112"/>
      <point x="186" y="165.137"/>
      <point x="186" y="274.331" type="curve" smooth="yes"/>
      <point x="186" y="426.702" type="line" smooth="yes"/>
      <point x="186" y="542.073"/>
      <point x="224.654" y="597"/>
      <point x="305.844" y="597" type="curve" smooth="yes"/>
      <point x="387.712" y="597"/>
      <point x="429" y="539.907"/>
      <point x="429" y="426.702" type="curve" smooth="yes"/>
      <point x="429" y="274.331" type="line" smooth="yes"/>
      <point x="429" y="167.377"/>
      <point x="386.919" y="112"/>
    </contour>
  </outline>
</glyph>
<glyph name="P" format="2">
  <advance width="580"/>
  <unicode hex="0050"/>
  <anchor x="284" y="776" name="top"/>
  <anchor x="236" y="-86" name="bottom"/>
  <outline>
    <contour>
      <point x="60" y="0" type="line"/>
      <point x="195" y="0" type="line"/>
      <point x="195" y="268" type="line"/>
      <point x="325" y="268" type="line" smooth="yes"/>
      <point x="466.344" y="268"/>
      <point x="556" y="351.834"/>
      <point x="556" y="484" type="curve" smooth="yes"/>
      <point x="556" y="621.674"/>
      <point x="467.613" y="707"/>
      <point x="325" y="707" type="curve" smooth="yes"/>
      <point x="60" y="707" type="line"/>
    </contour>
    <contour>
      <point x="195" y="386" type="line"/>
      <point x="195" y="590" type="line"/>
      <point x="318" y="590" type="line" smooth="yes"/>
      <point x="384.991" y="590"/>
      <point x="422" y="552.279"/>
      <point x="422" y="484" type="curve" smooth="yes"/>
      <point x="422" y="423.391"/>
      <point x="382.319" y="386"/>
      <point x="318" y="386" type="curve" smooth="yes"/>
    </contour>
  </outline>
</glyph>
<glyph name="Q" format="2">
  <advance width="614"/>
  <unicode hex="0051"/>
  <anchor x="308" y="776" name="top"/>
  <anchor x="236" y="-86" name="bottom"/>
  <outline>
    <contour>
      <point x="304" y="-8" type="curve" smooth="yes"/>
      <point x="474.787" y="-8"/>
      <point x="563" y="87.706"/>
      <point x="563" y="273" type="curve" smooth="yes"/>
      <point x="563" y="435" type="line" smooth="yes"/>
      <point x="563" y="622.751"/>
      <point x="477.775" y="717"/>
      <point x="308" y="717" type="curve" smooth="yes"/>
      <point x="137.239" y="717"/>
      <point x="51" y="622.372"/>
      <point x="51" y="435" type="curve" smooth="yes"/>
      <point x="51" y="273" type="line" smooth="yes"/>
      <point x="51" y="85.661"/>
      <point x="135.328" y="-8"/>
    </contour>
    <contour>
      <point x="308" y="112" type="curve" smooth="yes"/>
      <point x="223.209" y="112"/>
      <point x="186" y="161.714"/>
      <point x="186" y="275" type="curve" smooth="yes"/>
      <point x="186" y="428" type="line" smooth="yes"/>
      <point x="186" y="547.189"/>
      <point x="222.965" y="599"/>
      <point x="308" y="599" type="curve" smooth="yes"/>
      <point x="390.029" y="599"/>
      <point x="429" y="543.926"/>
      <point x="429" y="428" type="curve" smooth="yes"/>
      <point x="429" y="275" type="line" smooth="yes"/>
      <point x="429" y="165.255"/>
      <point x="389.467" y="112"/>
    </contour>
    <contour>
      <point x="439" y="-158" type="line"/>
      <point x="542" y="-101" type="line"/>
      <point x="459.624" y="49.473" type="line"/>
      <point x="348.676" y="8.501" type="line"/>
    </contour>
  </outline>
</glyph>
<glyph name="V" format="2">
  <advance width="567"/>
  <unicode hex="0056"/>
  <anchor x="284" y="776" name="top"/>
  <anchor x="284" y="-86" name="bottom"/>
  <outline>
    <contour>
      <point x="229" y="0" type="line"/>
      <point x="337" y="0" type="line"/>
      <point x="563" y="707" type="line"/>
      <point x="423" y="707" type="line"/>
      <point x="284" y="218" type="line"/>
      <point x="144" y="707" type="line"/>
      <point x="4" y="707" type="line"/>
    </contour>
  </outline>
</glyph>
<glyph name="Z" format="2">
  <advance width="517"/>
  <unicode hex="005A"/>
  <anchor x="259" y="776" name="top"/>
  <anchor x="259" y="-86" name="bottom"/>
  <outline>
    <contour>
      <point x="31" y="0" type="line"/>
      <point x="489" y="0" type="line"/>
      <point x="489" y="118" type="line"/>
      <point x="177" y="118" type="line"/>
      <point x="480" y="590" type="line"/>
      <point x="480" y="707" type="line"/>
      <point x="37" y="707" type="line"/>
      <point x="37" y="590" type="line"/>
      <point x="335" y="590" type="line"/>
      <point x="31" y="118" type="line"/>
    </contour>
  </outline>
</glyph>
<glyph name="a" format="2">
  <advance width="513"/>
  <unicode hex="0061"/>
  <anchor x="247" y="602" name="top"/>
  <anchor x="247" y="578" name="t.ring"/>
  <anchor x="248" y="-86" name="bottom"/>
  <anchor x="458" y="0" name="b.cedilla"/>
  <outline>
    <contour>
      <point x="335" y="0" type="line"/>
      <point x="458" y="0" type="line"/>
      <point x="458" y="350" type="line" smooth="yes"/>
      <point x="458" y="480.348"/>
      <point x="370.484" y="539"/>
      <point x="248" y="539" type="curve" smooth="yes"/>
      <point x="147.381" y="539"/>
      <point x="51" y="489.33"/>
      <point x="51" y="377" type="curve" smooth="yes"/>
      <point x="51" y="373" type="line"/>
      <point x="169" y="373" type="line"/>
      <point x="169" y="376" type="line" smooth="yes"/>
      <point x="169" y="418.965"/>
      <point x="207.495" y="441"/>
      <point x="247" y="441" type="curve" smooth="yes"/>
      <point x="302.062" y="441"/>
      <point x="332" y="411.062"/>
      <point x="332" y="356" type="curve" smooth="yes"/>
      <point x="332" y="314" type="line"/>
      <point x="302.309" y="314.615"/>
      <point x="272.633" y="316.126"/>
      <point x="242.93" y="316.126" type="curve" smooth="yes"/>
      <point x="138.916" y="316.126"/>
      <point x="37" y="281.883"/>
      <point x="37" y="160" type="curve" smooth="yes"/>
      <point x="37" y="54.612"/>
      <point x="105.775" y="-6"/>
      <point x="209" y="-6" type="curve" smooth="yes"/>
      <point x="256.916" y="-6"/>
      <point x="301.544" y="11.312"/>
      <point x="335" y="46" type="curve"/>
    </contour>
    <contour>
      <point x="332" y="227" type="line"/>
      <point x="332" y="189" type="line" smooth="yes"/>
      <point x="332" y="126.682"/>
      <point x="299.912" y="96"/>
      <point x="238" y="96" type="curve" smooth="yes"/>
      <point x="194.485" y="96"/>
      <point x="160" y="115.436"/>
      <point x="160" y="163" type="curve" smooth="yes"/>
      <point x="160" y="210.414"/>
      <point x="198.299" y="227"/>
      <point x="240" y="227" type="curve" smooth="yes"/>
    </contour>
  </outline>
</glyph>
<glyph name="b" format="2">
  <advance width="527"/>
  <unicode hex="0062"/>
  <anchor x="316" y="590" name="top"/>
  <anchor x="317" y="-86" name="bottom"/>
  <outline>
    <contour>
      <point x="55" y="0" type="line"/>
      <point x="179" y="0" type="line"/>
      <point x="179" y="49" type="line"/>
      <point x="210.56" y="10.008"/>
      <point x="255.895" y="-6"/>
      <point x="305" y="-6" type="curve" smooth="yes"/>
      <point x="432.906" y="-6"/>
      <point x="481" y="101.356"/>
      <point x="481" y="214" type="curve" smooth="yes"/>
      <point x="481" y="319" type="line" smooth="yes"/>
      <point x="481" y="435.227"/>
      <point x="431.476" y="539"/>
      <point x="301" y="539" type="curve" smooth="yes"/>
      <point x="252.169" y="539"/>
      <point x="210.563" y="517.58"/>
      <point x="182" y="478" type="curve"/>
      <point x="182" y="707" type="line"/>
      <point x="55" y="707" type="line"/>
    </contour>
    <contour>
      <point x="272" y="106" type="curve" smooth="yes"/>
      <point x="205.096" y="106"/>
      <point x="181" y="158.685"/>
      <point x="181" y="218" type="curve" smooth="yes"/>
      <point x="181" y="314" type="line" smooth="yes"/>
      <point x="181" y="370.371"/>
      <point x="204.387" y="426"/>
      <point x="269" y="426" type="curve" smooth="yes"/>
      <point x="336.538" y="426"/>
      <point x="354" y="371.537"/>
      <point x="354" y="314" type="curve" smooth="yes"/>
      <point x="354" y="218" type="line" smooth="yes"/>
      <point x="354" y="162.342"/>
      <point x="338.551" y="106"/>
    </contour>
  </outline>
</glyph>
<glyph name="c" format="2">
  <advance width="517"/>
  <unicode hex="0063"/>
  <anchor x="264" y="602" name="top"/>
  <anchor x="235" y="0" name="b.cedilla"/>
  <anchor x="236" y="-86" name="bottom"/>
  <outline>
    <contour>
      <point x="350" y="190" type="line"/>
      <point x="350" y="184" type="line" smooth="yes"/>
      <point x="350" y="133.128"/>
      <point x="314.864" y="106"/>
      <point x="264" y="106" type="curve" smooth="yes"/>
      <point x="193.277" y="106"/>
      <point x="172" y="155.198"/>
      <point x="172" y="218" type="curve" smooth="yes"/>
      <point x="172" y="314" type="line" smooth="yes"/>
      <point x="172" y="375.517"/>
      <point x="194.823" y="426"/>
      <point x="264" y="426" type="curve" smooth="yes"/>
      <point x="317.181" y="426"/>
      <point x="350" y="394.861"/>
      <point x="350" y="342" type="curve" smooth="yes"/>
      <point x="350" y="339" type="line"/>
      <point x="471" y="339" type="line"/>
      <point x="471" y="344" type="line" smooth="yes"/>
      <point x="471" y="473.865"/>
      <point x="389.602" y="539"/>
      <point x="262" y="539" type="curve" smooth="yes"/>
      <point x="119.061" y="539"/>
      <point x="46" y="456.227"/>
      <point x="46" y="316" type="curve" smooth="yes"/>
      <point x="46" y="217" type="line" smooth="yes"/>
      <point x="46" y="75.563"/>
      <point x="117.813" y="-6"/>
      <point x="262" y="-6" type="curve" smooth="yes"/>
      <point x="381.157" y="-6"/>
      <point x="471" y="56.658"/>
      <point x="471" y="183" type="curve" smooth="yes"/>
      <point x="471" y="190" type="line"/>
    </contour>
  </outline>
</glyph>
<glyph name="d" format="2">
  <advance width="526"/>
  <unicode hex="0064"/>
  <anchor x="233" y="590" name="top"/>
  <anchor x="233" y="-86" name="bottom"/>
  <outline>
    <contour>
      <point x="347" y="0" type="line"/>
      <point x="471" y="0" type="line"/>
      <point x="471" y="707" type="line"/>
      <point x="345" y="707" type="line"/>
      <point x="345" y="478" type="line"/>
      <point x="315.89" y="518.317"/>
      <point x="270.223" y="539"/>
      <point x="221" y="539" type="curve" smooth="yes"/>
      <point x="92.911" y="539"/>
      <point x="46" y="431.442"/>
      <point x="46" y="319" type="curve" smooth="yes"/>
      <point x="46" y="214" type="line" smooth="yes"/>
      <point x="46" y="101.649"/>
      <point x="94.465" y="-6"/>
      <point x="222" y="-6" type="curve" smooth="yes"/>
      <point x="269.821" y="-6"/>
      <point x="316.777" y="10.459"/>
      <point x="347" y="49" type="curve"/>
    </contour>
    <contour>
      <point x="255" y="106" type="curve" smooth="yes"/>
      <point x="188.659" y="106"/>
      <point x="173" y="162.517"/>
      <point x="173" y="218" type="curve" smooth="yes"/>
      <point x="173" y="314" type="line" smooth="yes"/>
      <point x="173" y="371.472"/>
      <point x="190.549" y="426"/>
      <point x="258" y="426" type="curve" smooth="yes"/>
      <point x="322.607" y="426"/>
      <point x="345" y="370.012"/>
      <point x="345" y="314" type="curve" smooth="yes"/>
      <point x="345" y="218" type="line" smooth="yes"/>
      <point x="345" y="158.581"/>
      <point x="322.488" y="106"/>
    </contour>
  </outline>
</glyph>
<glyph name="e" format="2">
  <advance width="529"/>
  <unicode hex="0065"/>
  <anchor x="265" y="602" name="top"/>
  <anchor x="265" y="-86" name="bottom"/>
  <anchor x="331" y="0" name="b.cedilla"/>
  <outline>
    <contour>
      <point x="172" y="228" type="line"/>
      <point x="483" y="228" type="line"/>
      <point x="483" y="299" type="line" smooth="yes"/>
      <point x="483" y="438.543"/>
      <point x="412.675" y="539"/>
      <point x="265" y="539" type="curve" smooth="yes"/>
      <point x="114.19" y="539"/>
      <point x="46" y="441.794"/>
      <point x="46" y="299" type="curve" smooth="yes"/>
      <point x="46" y="234" type="line" smooth="yes"/>
      <point x="46" y="88.933"/>
      <point x="117.421" y="-6"/>
      <point x="269" y="-6" type="curve" smooth="yes"/>
      <point x="374.087" y="-6"/>
      <point x="479" y="42.87"/>
      <point x="479" y="162" type="curve" smooth="yes"/>
      <point x="479" y="167" type="line"/>
      <point x="358" y="167" type="line"/>
      <point x="358.037" y="162.022" type="line"/>
      <point x="358.376" y="116.844"/>
      <point x="318.348" y="103"/>
      <point x="274" y="103" type="curve" smooth="yes"/>
      <point x="202.938" y="103"/>
      <point x="172" y="146.516"/>
      <point x="172" y="214" type="curve" smooth="yes"/>
    </contour>
    <contour>
      <point x="172" y="315" type="line"/>
      <point x="171.966" y="319.154" type="line"/>
      <point x="171.966" y="381.739"/>
      <point x="195.475" y="430"/>
      <point x="265" y="430" type="curve" smooth="yes"/>
      <point x="329.301" y="430"/>
      <point x="356" y="389.39"/>
      <point x="356" y="329" type="curve" smooth="yes"/>
      <point x="356" y="315" type="line"/>
    </contour>
  </outline>
</glyph>
<glyph name="f" format="2">
  <advance width="342"/>
  <unicode hex="0066"/>
  <anchor x="173" y="776" name="top"/>
  <anchor x="236" y="-86" name="bottom"/>
  <outline>
    <contour>
      <point x="93" y="0" type="line"/>
      <point x="219" y="0" type="line"/>
      <point x="219" y="443" type="line"/>
      <point x="314" y="443" type="line"/>
      <point x="314" y="532" type="line"/>
      <point x="219" y="532" type="line"/>
      <point x="219" y="547" type="line" smooth="yes"/>
      <point x="219" y="600.476"/>
      <point x="230.837" y="620.898"/>
      <point x="299.482" y="620.898" type="curve" smooth="yes"/>
      <point x="314" y="620.898" type="line"/>
      <point x="314" y="707" type="line"/>
      <point x="241" y="707" type="line" smooth="yes"/>
      <point x="150.413" y="707"/>
      <point x="93" y="656.254"/>
      <point x="93" y="564" type="curve" smooth="yes"/>
      <point x="93" y="532" type="line"/>
      <point x="37" y="532" type="line"/>
      <point x="37" y="443" type="line"/>
      <point x="93" y="443" type="line"/>
    </contour>
  </outline>
</glyph>
<glyph name="h" format="2">
  <advance width="532"/>
  <unicode hex="0068"/>
  <anchor x="281" y="776" name="top"/>
  <anchor x="280" y="-86" name="bottom"/>
  <outline>
    <contour>
      <point x="55" y="0" type="line"/>
      <point x="182" y="0" type="line"/>
      <point x="182" y="332" type="line" smooth="yes"/>
      <point x="182" y="383.856"/>
      <point x="212.067" y="426"/>
      <point x="267" y="426" type="curve" smooth="yes"/>
      <point x="325.006" y="426"/>
      <point x="350" y="385.874"/>
      <point x="350" y="332" type="curve" smooth="yes"/>
      <point x="350" y="0" type="line"/>
      <point x="477" y="0" type="line"/>
      <point x="477" y="347" type="line" smooth="yes"/>
      <point x="477" y="457.047"/>
      <point x="422.366" y="539"/>
      <point x="305" y="539" type="curve" smooth="yes"/>
      <point x="258.925" y="539"/>
      <point x="212.789" y="519.536"/>
      <point x="182" y="485" type="curve"/>
      <point x="182" y="707" type="line"/>
      <point x="55" y="707" type="line"/>
    </contour>
  </outline>
</glyph>
<glyph name="j" format="2">
  <advance width="246"/>
  <unicode hex="006A"/>
  <outline>
    <contour>
      <point x="57" y="605" type="line"/>
      <point x="186" y="605" type="line"/>
      <point x="186" y="707" type="line"/>
      <point x="57" y="707" type="line"/>
    </contour>
    <contour>
      <point x="-34" y="-160" type="line"/>
      <point x="26" y="-160" type="line" smooth="yes"/>
      <point x="129.112" y="-160"/>
      <point x="186" y="-100.435"/>
      <point x="186" y="2" type="curve" smooth="yes"/>
      <point x="186" y="532" type="line"/>
      <point x="60" y="532" type="line"/>
      <point x="60" y="10" type="line" smooth="yes"/>
      <point x="60" y="-37.721"/>
      <point x="26.895" y="-49.921"/>
      <point x="-21.753" y="-49.921" type="curve" smooth="yes"/>
      <point x="-34" y="-49.921" type="line"/>
    </contour>
  </outline>
</glyph>
<glyph name="q" format="2">
  <advance width="526"/>
  <unicode hex="0071"/>
  <anchor x="252" y="602" name="top"/>
  <anchor x="236" y="-86" name="bottom"/>
  <outline>
    <contour>
      <point x="345" y="-160" type="line"/>
      <point x="471" y="-160" type="line"/>
      <point x="471" y="532" type="line"/>
      <point x="347" y="532" type="line"/>
      <point x="347" y="478" type="line"/>
      <point x="317.005" y="518.053"/>
      <point x="275.032" y="539"/>
      <point x="225" y="539" type="curve" smooth="yes"/>
      <point x="94.658" y="539"/>
      <point x="46" y="434.116"/>
      <point x="46" y="319" type="curve" smooth="yes"/>
      <point x="46" y="214" type="line" smooth="yes"/>
      <point x="46" y="101.732"/>
      <point x="93.548" y="-6"/>
      <point x="222" y="-6" type="curve" smooth="yes"/>
      <point x="270.35" y="-6"/>
      <point x="314.085" y="9.577"/>
      <point x="345" y="48" type="curve"/>
    </contour>
    <contour>
      <point x="255" y="106" type="curve" smooth="yes"/>
      <point x="188.614" y="106"/>
      <point x="173" y="161.785"/>
      <point x="173" y="218" type="curve" smooth="yes"/>
      <point x="173" y="314" type="line" smooth="yes"/>
      <point x="173" y="372.249"/>
      <point x="190.464" y="426"/>
      <point x="258" y="426" type="curve" smooth="yes"/>
      <point x="323.48" y="426"/>
      <point x="345" y="370.574"/>
      <point x="345" y="314" type="curve" smooth="yes"/>
      <point x="345" y="218" type="line" smooth="yes"/>
      <point x="345" y="158.485"/>
      <point x="323.033" y="106"/>
    </contour>
  </outline>
</glyph>
<glyph name="s" format="2">
  <advance width="485"/>
  <unicode hex="0073"/>
  <anchor x="243" y="602" name="top"/>
  <anchor x="220" y="0" name="b.cedilla"/>
  <anchor x="244" y="-86" name="bottom"/>
  <outline>
    <contour>
      <point x="37.011" y="162" type="line"/>
      <point x="37.011" y="156.915" type="line" smooth="yes"/>
      <point x="37.011" y="42.338"/>
      <point x="134.683" y="-6"/>
      <point x="239" y="-6" type="curve" smooth="yes"/>
      <point x="347.009" y="-6"/>
      <point x="453" y="42.399"/>
      <point x="453" y="165" type="curve" smooth="yes"/>
      <point x="453" y="252.202"/>
      <point x="400.233" y="296.115"/>
      <point x="265.238" y="321.258" type="curve" smooth="yes"/>
      <point x="227.3" y="328.324" type="line" smooth="yes"/>
      <point x="189.594" y="335.347"/>
      <point x="163" y="350.007"/>
      <point x="163" y="383" type="curve" smooth="yes"/>
      <point x="163" y="427.409"/>
      <point x="206.798" y="439"/>
      <point x="243" y="439" type="curve" smooth="yes"/>
      <point x="279.867" y="439"/>
      <point x="325.918" y="426.321"/>
      <point x="325.918" y="382.862" type="curve" smooth="yes"/>
      <point x="325.918" y="378" type="line"/>
      <point x="442.982" y="378" type="line"/>
      <point x="442.982" y="382.862" type="line" smooth="yes"/>
      <point x="442.982" y="491.34"/>
      <point x="340.319" y="539"/>
      <point x="243" y="539" type="curve" smooth="yes"/>
      <point x="142.368" y="539"/>
      <point x="44" y="485.747"/>
      <point x="44" y="374" type="curve" smooth="yes"/>
      <point x="44" y="291.397"/>
      <point x="102.966" y="241.157"/>
      <point x="226.489" y="218.518" type="curve" smooth="yes"/>
      <point x="264.692" y="211.517" type="line" smooth="yes"/>
      <point x="303.891" y="204.332"/>
      <point x="332" y="189.99"/>
      <point x="332" y="156" type="curve" smooth="yes"/>
      <point x="332" y="107.615"/>
      <point x="281.854" y="96"/>
      <point x="243" y="96" type="curve" smooth="yes"/>
      <point x="204.065" y="96"/>
      <point x="156.089" y="112.267"/>
      <point x="156.089" y="156.915" type="curve" smooth="yes"/>
      <point x="156.089" y="162" type="line"/>
    </contour>
  </outline>
</glyph>
<glyph name="t" format="2">
  <advance width="360"/>
  <unicode hex="0074"/>
  <anchor x="217" y="-86" name="bottom"/>
  <anchor x="162" y="776" name="top"/>
  <outline>
    <contour>
      <point x="317" y="0" type="line"/>
      <point x="317" y="107.944" type="line"/>
      <point x="305.895" y="107.944" type="line" smooth="yes"/>
      <point x="264.999" y="107.944"/>
      <point x="225" y="115.365"/>
      <point x="225" y="162" type="curve" smooth="yes"/>
      <point x="225" y="443" type="line"/>
      <point x="328" y="443" type="line"/>
      <point x="328" y="532" type="line"/>
      <point x="225" y="532" type="line"/>
      <point x="225" y="681" type="line"/>
      <point x="99" y="637" type="line"/>
      <point x="99" y="532" type="line"/>
      <point x="26" y="532" type="line"/>
      <point x="26" y="443" type="line"/>
      <point x="99" y="443" type="line"/>
      <point x="99" y="154" type="line" smooth="yes"/>
      <point x="99" y="57.98"/>
      <point x="162.396" y="0"/>
      <point x="257" y="0" type="curve" smooth="yes"/>
    </contour>
  </outline>
</glyph>
<glyph name="v" format="2">
  <advance width="492"/>
  <unicode hex="0076"/>
  <anchor x="247" y="602" name="top"/>
  <anchor x="247" y="-86" name="bottom"/>
  <outline>
    <contour>
      <point x="194" y="0" type="line"/>
      <point x="298" y="0" type="line"/>
      <point x="483" y="532" type="line"/>
      <point x="349" y="532" type="line"/>
      <point x="247" y="195" type="line"/>
      <point x="143" y="532" type="line"/>
      <point x="9" y="532" type="line"/>
    </contour>
  </outline>
</glyph>
<glyph name="y" format="2">
  <advance width="493"/>
  <unicode hex="0079"/>
  <anchor x="241" y="602" name="top"/>
  <anchor x="381" y="-108" name="dot"/>
  <anchor x="241" y="578" name="t.ring"/>
  <outline>
    <contour>
      <point x="78" y="-158" type="line"/>
      <point x="82.675" y="-158.005" type="line"/>
      <point x="180.609" y="-158.005"/>
      <point x="247.143" y="-149.11"/>
      <point x="283" y="-46" type="curve" smooth="yes"/>
      <point x="484" y="532" type="line"/>
      <point x="354" y="532" type="line"/>
      <point x="248" y="198" type="line"/>
      <point x="143" y="532" type="line"/>
      <point x="9" y="532" type="line"/>
      <point x="189" y="14" type="line"/>
      <point x="185.998" y="2.893" type="line" smooth="yes"/>
      <point x="176.03" y="-33.987"/>
      <point x="151.783" y="-44.317"/>
      <point x="110.837" y="-44.317" type="curve"/>
      <point x="78" y="-44" type="line"/>
    </contour>
  </outline>
</glyph>
<glyph name="currency" format="2">
  <advance width="609"/>
  <unicode hex="00A4"/>
  <outline>
    <contour>
      <point x="130" y="77" type="line"/>
      <point x="197" y="143" type="line"/>
      <point x="229.444" y="123.73"/>
      <point x="266.422" y="115"/>
      <point x="304" y="115" type="curve" smooth="yes"/>
      <point x="341.793" y="115"/>
      <point x="379.342" y="123.608"/>
      <point x="412" y="143" type="curve"/>
      <point x="479" y="76" type="line"/>
      <point x="554" y="151" type="line"/>
      <point x="486" y="218" type="line"/>
      <point x="504.624" y="250.08"/>
      <point x="513" y="287.078"/>
      <point x="513" y="324" type="curve" smooth="yes"/>
      <point x="513" y="360.606"/>
      <point x="502.465" y="396.008"/>
      <point x="485" y="428" type="curve"/>
      <point x="553" y="497" type="line"/>
      <point x="479" y="571" type="line"/>
      <point x="411" y="504" type="line"/>
      <point x="378.216" y="521.884"/>
      <point x="341.314" y="531"/>
      <point x="304" y="531" type="curve" smooth="yes"/>
      <point x="266.916" y="531"/>
      <point x="230.556" y="521.765"/>
      <point x="198" y="504" type="curve"/>
      <point x="130" y="571" type="line"/>
      <point x="55" y="497" type="line"/>
      <point x="124" y="428" type="line"/>
      <point x="106.535" y="396.008"/>
      <point x="96" y="360.606"/>
      <point x="96" y="324" type="curve" smooth="yes"/>
      <point x="96" y="287.335"/>
      <point x="104.013" y="250.644"/>
      <point x="123" y="219" type="curve"/>
      <point x="55" y="152" type="line"/>
    </contour>
    <contour>
      <point x="304" y="215" type="curve" smooth="yes"/>
      <point x="240.798" y="215"/>
      <point x="200" y="262.604"/>
      <point x="200" y="324" type="curve" smooth="yes"/>
      <point x="200" y="384.376"/>
      <point x="242.451" y="431"/>
      <point x="304" y="431" type="curve" smooth="yes"/>
      <point x="365.16" y="431"/>
      <point x="410" y="384.909"/>
      <point x="410" y="324" type="curve" smooth="yes"/>
      <point x="410" y="262.094"/>
      <point x="366.793" y="215"/>
    </contour>
  </outline>
</glyph>
<glyph name="plusminus" format="2">
  <advance width="541"/>
  <unicode hex="00B1"/>
  <outline>
    <contour>
      <point x="213" y="124" type="line"/>
      <point x="330" y="124" type="line"/>
      <point x="330" y="288" type="line"/>
      <point x="493" y="288" type="line"/>
      <point x="493" y="404" type="line"/>
      <point x="330" y="404" type="line"/>
      <point x="330" y="568" type="line"/>
      <point x="213" y="568" type="line"/>
      <point x="213" y="404" type="line"/>
      <point x="49" y="404" type="line"/>
      <point x="49" y="288" type="line"/>
      <point x="213" y="288" type="line"/>
    </contour>
    <contour>
      <point x="49" y="-37" type="line"/>
      <point x="493" y="-37" type="line"/>
      <point x="493" y="80" type="line"/>
      <point x="49" y="80" type="line"/>
    </contour>
  </outline>
</glyph>
<glyph name="paragraph" format="2">
  <advance width="659"/>
  <unicode hex="00B6"/>
  <outline>
    <contour>
      <point x="262" y="-160" type="line"/>
      <point x="375" y="-160" type="line"/>
      <point x="375" y="604" type="line"/>
      <point x="459" y="604" type="line"/>
      <point x="459" y="-160" type="line"/>
      <point x="568" y="-160" type="line"/>
      <point x="568" y="707" type="line"/>
      <point x="293" y="707" type="line" smooth="yes"/>
      <point x="156.067" y="707"/>
      <point x="60" y="614.644"/>
      <point x="60" y="483" type="curve" smooth="yes"/>
      <point x="60" y="359.423"/>
      <point x="142.508" y="267.929"/>
      <point x="262" y="259" type="curve"/>
    </contour>
  </outline>
</glyph>
<glyph name="onesuperior" format="2">
  <advance width="259"/>
  <unicode hex="00B9"/>
  <outline>
    <contour>
      <point x="99" y="440" type="line"/>
      <point x="205" y="440" type="line"/>
      <point x="205" y="869" type="line"/>
      <point x="100" y="869" type="line"/>
      <point x="30" y="818" type="line"/>
      <point x="30" y="705" type="line"/>
      <point x="99" y="754" type="line"/>
    </contour>
  </outline>
</glyph>
<glyph name="ordmasculine" format="2">
  <advance width="363"/>
  <unicode hex="00BA"/>
  <outline>
    <contour>
      <point x="44" y="572" type="line" smooth="yes"/>
      <point x="44" y="484.269"/>
      <point x="92.979" y="436"/>
      <point x="182" y="436" type="curve" smooth="yes"/>
      <point x="271.171" y="436"/>
      <point x="319" y="483.48"/>
      <point x="319" y="572" type="curve" smooth="yes"/>
      <point x="319" y="631" type="line" smooth="yes"/>
      <point x="319" y="719.751"/>
      <point x="272.066" y="766"/>
      <point x="182" y="766" type="curve" smooth="yes"/>
      <point x="92.069" y="766"/>
      <point x="44" y="718.976"/>
      <point x="44" y="631" type="curve" smooth="yes"/>
    </contour>
    <contour>
      <point x="181" y="518" type="curve" smooth="yes"/>
      <point x="150.507" y="518"/>
      <point x="135" y="536.204"/>
      <point x="135" y="572" type="curve" smooth="yes"/>
      <point x="135" y="630" type="line" smooth="yes"/>
      <point x="135" y="665.796"/>
      <point x="150.507" y="684"/>
      <point x="181" y="684" type="curve" smooth="yes"/>
      <point x="211.493" y="684"/>
      <point x="227" y="665.796"/>
      <point x="227" y="630" type="curve" smooth="yes"/>
      <point x="227" y="572" type="line" smooth="yes"/>
      <point x="227" y="536.204"/>
      <point x="211.493" y="518"/>
    </contour>
  </outline>
</glyph>
<glyph name="onehalf" format="2">
  <advance width="821"/>
  <unicode hex="00BD"/>
  <outline>
    <contour>
      <point x="116" y="0" type="line"/>
      <point x="216" y="0" type="line"/>
      <point x="611" y="712" type="line"/>
      <point x="510" y="712" type="line"/>
    </contour>
    <contour>
      <point x="99" y="280" type="line"/>
      <point x="205" y="280" type="line"/>
      <point x="205" y="709" type="line"/>
      <point x="100" y="709" type="line"/>
      <point x="30" y="658" type="line"/>
      <point x="30" y="545" type="line"/>
      <point x="99" y="594" type="line"/>
    </contour>
    <contour>
      <point x="512" y="0" type="line"/>
      <point x="780" y="0" type="line"/>
      <point x="780" y="91" type="line"/>
      <point x="645" y="91" type="line"/>
      <point x="739" y="207" type="line" smooth="yes"/>
      <point x="765.022" y="239.112"/>
      <point x="779.96" y="263.257"/>
      <point x="779.96" y="306" type="curve" smooth="yes"/>
      <point x="779.96" y="311.42" type="line" smooth="yes"/>
      <point x="779.96" y="389.354"/>
      <point x="724.724" y="436"/>
      <point x="646" y="436" type="curve" smooth="yes"/>
      <point x="571.555" y="436"/>
      <point x="509" y="396.389"/>
      <point x="509" y="316" type="curve" smooth="yes"/>
      <point x="509" y="301" type="line"/>
      <point x="610.031" y="301" type="line"/>
      <point x="610.031" y="305.465" type="line" smooth="yes"/>
      <point x="610.031" y="325.772"/>
      <point x="615.791" y="348"/>
      <point x="641" y="348" type="curve" smooth="yes"/>
      <point x="662.851" y="348"/>
      <point x="672.965" y="332.172"/>
      <point x="672.965" y="312" type="curve" smooth="yes"/>
      <point x="672.965" y="307.758" type="line" smooth="yes"/>
      <point x="672.965" y="286.638"/>
      <point x="665.957" y="274.446"/>
      <point x="652" y="257" type="curve" smooth="yes"/>
      <point x="512" y="82" type="line"/>
    </contour>
  </outline>
</glyph>
<glyph name="threequarters" format="2">
  <advance width="919"/>
  <unicode hex="00BE"/>
  <outline>
    <contour>
      <point x="206" y="0" type="line"/>
      <point x="306" y="0" type="line"/>
      <point x="701" y="712" type="line"/>
      <point x="600" y="712" type="line"/>
    </contour>
    <contour>
      <point x="38.116" y="405" type="line"/>
      <point x="38.116" y="400.656" type="line" smooth="yes"/>
      <point x="38.116" y="311.244"/>
      <point x="83.381" y="274"/>
      <point x="174.1" y="274" type="curve" smooth="yes"/>
      <point x="250.744" y="274"/>
      <point x="308.022" y="323.408"/>
      <point x="308.022" y="402" type="curve" smooth="yes"/>
      <point x="308.022" y="412.125" type="line" smooth="yes"/>
      <point x="308.022" y="452.753"/>
      <point x="296.575" y="492.531"/>
      <point x="254.1" y="509" type="curve"/>
      <point x="285.328" y="527.113"/>
      <point x="301.03" y="554.943"/>
      <point x="301.03" y="591" type="curve" smooth="yes"/>
      <point x="301.03" y="598.729" type="line" smooth="yes"/>
      <point x="301.03" y="676.446"/>
      <point x="251.745" y="717"/>
      <point x="172.1" y="717" type="curve" smooth="yes"/>
      <point x="95.032" y="717"/>
      <point x="40.1" y="677.128"/>
      <point x="40.1" y="596" type="curve" smooth="yes"/>
      <point x="40.1" y="586" type="line"/>
      <point x="134.11" y="586" type="line"/>
      <point x="134.11" y="589.583" type="line" smooth="yes"/>
      <point x="134.11" y="613.571"/>
      <point x="138.366" y="629"/>
      <point x="168.1" y="629" type="curve" smooth="yes"/>
      <point x="191.64" y="629"/>
      <point x="200.03" y="612.447"/>
      <point x="200.03" y="591" type="curve" smooth="yes"/>
      <point x="200.03" y="584.398" type="line" smooth="yes"/>
      <point x="200.03" y="548.4"/>
      <point x="182.887" y="544.027"/>
      <point x="152.342" y="544.027" type="curve" smooth="yes"/>
      <point x="141.1" y="544.027" type="line"/>
      <point x="141.1" y="456.893" type="line"/>
      <point x="152.334" y="456.893" type="line" smooth="yes"/>
      <point x="183.811" y="456.893"/>
      <point x="207.033" y="447.221"/>
      <point x="207.033" y="411" type="curve" smooth="yes"/>
      <point x="207.033" y="404.614" type="line" smooth="yes"/>
      <point x="207.033" y="382.117"/>
      <point x="199.037" y="361"/>
      <point x="171.1" y="361" type="curve" smooth="yes"/>
      <point x="140.397" y="361"/>
      <point x="133.128" y="374.66"/>
      <point x="133.128" y="400.233" type="curve" smooth="yes"/>
      <point x="133.128" y="405" type="line"/>
    </contour>
    <contour>
      <point x="590" y="58" type="line"/>
      <point x="756" y="58" type="line"/>
      <point x="756" y="0" type="line"/>
      <point x="861" y="0" type="line"/>
      <point x="861" y="58" type="line"/>
      <point x="889" y="58" type="line"/>
      <point x="889" y="150" type="line"/>
      <point x="861" y="150" type="line"/>
      <point x="861" y="240" type="line"/>
      <point x="756" y="240" type="line"/>
      <point x="756" y="150" type="line"/>
      <point x="695" y="150" type="line"/>
      <point x="813" y="429" type="line"/>
      <point x="707" y="429" type="line"/>
      <point x="590" y="150" type="line"/>
    </contour>
  </outline>
</glyph>
<glyph name="questiondown" format="2">
  <advance width="461"/>
  <unicode hex="00BF"/>
  <outline>
    <contour>
      <point x="171" y="399" type="line"/>
      <point x="304" y="399" type="line"/>
      <point x="304" y="532" type="line"/>
      <point x="171" y="532" type="line"/>
    </contour>
    <contour>
      <point x="310" y="27" type="line"/>
      <point x="307.92" y="-29.961"/>
      <point x="286.24" y="-55"/>
      <point x="239" y="-55" type="curve" smooth="yes"/>
      <point x="191.653" y="-55"/>
      <point x="166" y="-30.05"/>
      <point x="166" y="16" type="curve" smooth="yes"/>
      <point x="166" y="53.347"/>
      <point x="180" y="80.036"/>
      <point x="224.727" y="127.954" type="curve" smooth="yes"/>
      <point x="235.102" y="139.069" type="line" smooth="yes"/>
      <point x="281.979" y="189.29"/>
      <point x="301" y="233.431"/>
      <point x="301" y="292" type="curve" smooth="yes"/>
      <point x="301" y="331" type="line"/>
      <point x="174.048" y="331" type="line"/>
      <point x="174.048" y="306.489" type="line" smooth="yes"/>
      <point x="174.048" y="262.499"/>
      <point x="168.224" y="243.632"/>
      <point x="146.597" y="217.566" type="curve" smooth="yes"/>
      <point x="137" y="206" type="line" smooth="yes"/>
      <point x="81.878" y="139.564"/>
      <point x="35" y="84.072"/>
      <point x="35" y="9" type="curve" smooth="yes"/>
      <point x="35" y="-97.014"/>
      <point x="116.141" y="-170"/>
      <point x="234" y="-170" type="curve" smooth="yes"/>
      <point x="363.084" y="-170"/>
      <point x="434" y="-100.148"/>
      <point x="434" y="27" type="curve"/>
    </contour>
  </outline>
</glyph>
<glyph name="AE" format="2">
  <advance width="904"/>
  <unicode hex="00C6"/>
  <anchor x="513" y="776" name="top"/>
  <outline>
    <contour>
      <point x="4" y="0" type="line"/>
      <point x="145" y="0" type="line"/>
      <point x="214" y="144" type="line"/>
      <point x="429" y="144" type="line"/>
      <point x="429" y="0" type="line"/>
      <point x="868" y="0" type="line"/>
      <point x="868" y="117" type="line"/>
      <point x="564" y="117" type="line"/>
      <point x="564" y="298" type="line"/>
      <point x="822" y="298" type="line"/>
      <point x="822" y="415" type="line"/>
      <point x="564" y="415" type="line"/>
      <point x="564" y="590" type="line"/>
      <point x="868" y="590" type="line"/>
      <point x="868" y="707" type="line"/>
      <point x="352" y="707" type="line"/>
    </contour>
    <contour>
      <point x="268" y="256" type="line"/>
      <point x="429" y="593" type="line"/>
      <point x="429" y="256" type="line"/>
    </contour>
  </outline>
</glyph>
<glyph name="Thorn" format="2">
  <advance width="580"/>
  <unicode hex="00DE"/>
  <outline>
    <contour>
      <point x="60" y="0" type="line"/>
      <point x="195" y="0" type="line"/>
      <point x="195" y="153" type="line"/>
      <point x="325" y="153" type="line" smooth="yes"/>
      <point x="459.354" y="153"/>
      <point x="556" y="227.56"/>
      <point x="556" y="368" type="curve" smooth="yes"/>
      <point x="556" y="509.52"/>
      <point x="462.903" y="590"/>
      <point x="325" y="590" type="curve" smooth="yes"/>
      <point x="195" y="590" type="line"/>
      <point x="195" y="707" type="line"/>
      <point x="60" y="707" type="line"/>
    </contour>
    <contour>
      <point x="195" y="269" type="line"/>
      <point x="195" y="473" type="line"/>
      <point x="318" y="473" type="line" smooth="yes"/>
      <point x="385.409" y="473"/>
      <point x="422" y="435.03"/>
      <point x="422" y="368" type="curve" smooth="yes"/>
      <point x="422" y="303.973"/>
      <point x="380.229" y="269"/>
      <point x="318" y="269" type="curve" smooth="yes"/>
    </contour>
  </outline>
</glyph>
<glyph name="ae" format="2">
  <advance width="814"/>
  <unicode hex="00E6"/>
  <anchor x="403" y="602" name="top"/>
  <outline>
    <contour>
      <point x="51" y="373" type="line"/>
      <point x="169.036" y="373" type="line"/>
      <point x="169.036" y="376.701" type="line" smooth="yes"/>
      <point x="169.036" y="421.095"/>
      <point x="204.595" y="441"/>
      <point x="247" y="441" type="curve" smooth="yes"/>
      <point x="303.821" y="441"/>
      <point x="332" y="412.821"/>
      <point x="332" y="356" type="curve" smooth="yes"/>
      <point x="332" y="314.857" type="line"/>
      <point x="210.889" y="314.857" type="line" smooth="yes"/>
      <point x="97.108" y="314.857"/>
      <point x="37" y="261.328"/>
      <point x="37" y="160" type="curve" smooth="yes"/>
      <point x="37" y="47.006"/>
      <point x="122.695" y="-6"/>
      <point x="227" y="-6" type="curve" smooth="yes"/>
      <point x="289.702" y="-6"/>
      <point x="349.993" y="12.981"/>
      <point x="395" y="58" type="curve"/>
      <point x="439.585" y="11.229"/>
      <point x="499.784" y="-6"/>
      <point x="563" y="-6" type="curve" smooth="yes"/>
      <point x="667.227" y="-6"/>
      <point x="764" y="45.547"/>
      <point x="764" y="162" type="curve" smooth="yes"/>
      <point x="764" y="167" type="line"/>
      <point x="642.882" y="167" type="line"/>
      <point x="642.882" y="162.022" type="line" smooth="yes"/>
      <point x="642.882" y="130.825"/>
      <point x="603.337" y="103"/>
      <point x="559" y="103" type="curve" smooth="yes"/>
      <point x="485.195" y="103"/>
      <point x="458" y="144.929"/>
      <point x="458" y="214" type="curve" smooth="yes"/>
      <point x="458" y="228" type="line"/>
      <point x="768" y="228" type="line"/>
      <point x="768" y="299" type="line" smooth="yes"/>
      <point x="768" y="438.412"/>
      <point x="699.236" y="539"/>
      <point x="551" y="539" type="curve" smooth="yes"/>
      <point x="496.853" y="539"/>
      <point x="443.876" y="523.578"/>
      <point x="403" y="487" type="curve"/>
      <point x="360.238" y="525.268"/>
      <point x="304.27" y="539"/>
      <point x="248" y="539" type="curve" smooth="yes"/>
      <point x="146.023" y="539"/>
      <point x="51" y="490.944"/>
      <point x="51" y="377" type="curve" smooth="yes"/>
    </contour>
    <contour>
      <point x="458" y="315" type="line"/>
      <point x="458" y="380.236"/>
      <point x="476.587" y="430"/>
      <point x="551" y="430" type="curve" smooth="yes"/>
      <point x="616.726" y="430"/>
      <point x="642" y="391.132"/>
      <point x="642" y="329" type="curve" smooth="yes"/>
      <point x="642" y="315" type="line"/>
    </contour>
    <contour>
      <point x="332" y="227" type="line"/>
      <point x="332" y="195" type="line" smooth="yes"/>
      <point x="332" y="131.696"/>
      <point x="303.127" y="96"/>
      <point x="238" y="96" type="curve" smooth="yes"/>
      <point x="192.675" y="96"/>
      <point x="160" y="113.791"/>
      <point x="160" y="163" type="curve" smooth="yes"/>
      <point x="160" y="212.501"/>
      <point x="196.132" y="227"/>
      <point x="240" y="227" type="curve" smooth="yes"/>
    </contour>
  </outline>
</glyph>
<glyph name="divide" format="2">
  <advance width="541"/>
  <unicode hex="00F7"/>
  <outline>
    <contour>
      <point x="270" y="385" type="curve" smooth="yes"/>
      <point x="308.523" y="385"/>
      <point x="339" y="415.477"/>
      <point x="339" y="454" type="curve" smooth="yes"/>
      <point x="339" y="492.122"/>
      <point x="307.791" y="522"/>
      <point x="270" y="522" type="curve" smooth="yes"/>
      <point x="231.593" y="522"/>
      <point x="203" y="492.019"/>
      <point x="203" y="454" type="curve" smooth="yes"/>
      <point x="203" y="415.547"/>
      <point x="230.806" y="385"/>
    </contour>
    <contour>
      <point x="49" y="224" type="line"/>
      <point x="493" y="224" type="line"/>
      <point x="493" y="341" type="line"/>
      <point x="49" y="341" type="line"/>
    </contour>
    <contour>
      <point x="270" y="44" type="curve" smooth="yes"/>
      <point x="308.745" y="44"/>
      <point x="339" y="74.197"/>
      <point x="339" y="113" type="curve" smooth="yes"/>
      <point x="339" y="151.122"/>
      <point x="307.791" y="181"/>
      <point x="270" y="181" type="curve" smooth="yes"/>
      <point x="231.593" y="181"/>
      <point x="203" y="151.019"/>
      <point x="203" y="113" type="curve" smooth="yes"/>
      <point x="203" y="74.547"/>
      <point x="230.806" y="44"/>
    </contour>
  </outline>
</glyph>
<glyph name="oslash" format="2">
  <advance width="522"/>
  <unicode hex="00F8"/>
  <anchor x="262" y="602" name="top"/>
  <outline>
    <component base="o"/>
    <contour>
      <point x="46" y="-30" type="line"/>
      <point x="110" y="-30" type="line"/>
      <point x="476" y="559" type="line"/>
      <point x="413" y="559" type="line"/>
    </contour>
  </outline>
</glyph>
<glyph name="Dcroat" format="2">
  <advance width="685"/>
  <unicode hex="0110"/>
  <outline>
    <component base="D" xOffset="54"/>
    <contour>
      <point x="39" y="419" type="line"/>
      <point x="39" y="301" type="line"/>
      <point x="369" y="301" type="line"/>
      <point x="369" y="419" type="line"/>
    </contour>
  </outline>
</glyph>
<glyph name="oe" format="2">
  <advance width="832"/>
  <unicode hex="0153"/>
  <outline>
    <contour>
      <point x="476" y="228" type="line"/>
      <point x="786" y="228" type="line"/>
      <point x="786" y="299" type="line" smooth="yes"/>
      <point x="786" y="439.373"/>
      <point x="718.747" y="539"/>
      <point x="569" y="539" type="curve" smooth="yes"/>
      <point x="513.479" y="539"/>
      <point x="458.573" y="524.297"/>
      <point x="417" y="486" type="curve"/>
      <point x="375.25" y="525.494"/>
      <point x="318.078" y="539"/>
      <point x="262" y="539" type="curve" smooth="yes"/>
      <point x="117.931" y="539"/>
      <point x="46" y="456.247"/>
      <point x="46" y="316" type="curve" smooth="yes"/>
      <point x="46" y="217" type="line" smooth="yes"/>
      <point x="46" y="75.396"/>
      <point x="116.769" y="-6"/>
      <point x="262" y="-6" type="curve" smooth="yes"/>
      <point x="317.839" y="-6"/>
      <point x="375.308" y="6.562"/>
      <point x="417" y="46" type="curve"/>
      <point x="459.395" y="6.942"/>
      <point x="515.704" y="-6"/>
      <point x="572" y="-6" type="curve" smooth="yes"/>
      <point x="678.899" y="-6"/>
      <point x="782" y="40.221"/>
      <point x="782" y="162" type="curve" smooth="yes"/>
      <point x="782" y="167" type="line"/>
      <point x="661.934" y="167" type="line"/>
      <point x="661.934" y="162.856" type="line" smooth="yes"/>
      <point x="661.934" y="122.477"/>
      <point x="610.284" y="103"/>
      <point x="578" y="103" type="curve" smooth="yes"/>
      <point x="504.215" y="103"/>
      <point x="476" y="143.533"/>
      <point x="476" y="214" type="curve" smooth="yes"/>
    </contour>
    <contour>
      <point x="262" y="106" type="curve" smooth="yes"/>
      <point x="192.929" y="106"/>
      <point x="172" y="156.64"/>
      <point x="172" y="218" type="curve" smooth="yes"/>
      <point x="172" y="314" type="line" smooth="yes"/>
      <point x="172" y="375.36"/>
      <point x="192.929" y="426"/>
      <point x="262" y="426" type="curve" smooth="yes"/>
      <point x="330.606" y="426"/>
      <point x="350" y="374.224"/>
      <point x="350" y="314" type="curve" smooth="yes"/>
      <point x="350" y="218" type="line" smooth="yes"/>
      <point x="350" y="157.776"/>
      <point x="330.606" y="106"/>
    </contour>
    <contour>
      <point x="475.761" y="315" type="line"/>
      <point x="475.761" y="332.934" type="line" smooth="yes"/>
      <point x="475.761" y="389.247"/>
      <point x="501.573" y="430"/>
      <point x="569" y="430" type="curve" smooth="yes"/>
      <point x="634.726" y="430"/>
      <point x="660" y="391.132"/>
      <point x="660" y="329" type="curve" smooth="yes"/>
      <point x="660" y="315" type="line"/>
    </contour>
  </outline>
</glyph>
<glyph name="tbar" format="2">
  <advance width="360"/>
  <unicode hex="0167"/>
  <outline>
    <component base="t"/>
    <contour>
      <point x="26" y="264" type="line"/>
      <point x="328" y="264" type="line"/>
      <point x="328" y="357" type="line"/>
      <point x="26" y="357" type="line"/>
    </contour>
  </outline>
</glyph>
<glyph name="dotlessj" format="2">
  <advance width="246"/>
  <unicode hex="0237"/>
  <anchor x="123" y="602" name="top"/>
  <outline>
    <contour>
      <point x="-34" y="-160" type="line"/>
      <point x="26" y="-160" type="line" smooth="yes"/>
      <point x="129.112" y="-160"/>
      <point x="186" y="-100.435"/>
      <point x="186" y="2" type="curve" smooth="yes"/>
      <point x="186" y="532" type="line"/>
      <point x="60" y="532" type="line"/>
      <point x="60" y="10" type="line" smooth="yes"/>
      <point x="60" y="-35.643"/>
      <point x="45.005" y="-50.195"/>
      <point x="-2.031" y="-50.195" type="curve" smooth="yes"/>
      <point x="-34" y="-50.195" type="line"/>
    </contour>
  </outline>
</glyph>
<glyph name="circumflex" format="2">
  <advance width="512"/>
  <unicode hex="02C6"/>
  <outline>
    <contour>
      <point x="91" y="591" type="line"/>
      <point x="191" y="591" type="line"/>
      <point x="256" y="671" type="line"/>
      <point x="321" y="591" type="line"/>
      <point x="420" y="591" type="line"/>
      <point x="302" y="745" type="line"/>
      <point x="209" y="745" type="line"/>
    </contour>
  </outline>
</glyph>
<glyph name="caron" format="2">
  <advance width="512"/>
  <unicode hex="02C7"/>
  <outline>
    <contour>
      <point x="209" y="584" type="line"/>
      <point x="302" y="584" type="line"/>
      <point x="420" y="738" type="line"/>
      <point x="321" y="738" type="line"/>
      <point x="256" y="658" type="line"/>
      <point x="191" y="738" type="line"/>
      <point x="91" y="738" type="line"/>
    </contour>
  </outline>
</glyph>
<glyph name="breve" format="2">
  <advance width="512"/>
  <unicode hex="02D8"/>
  <outline>
    <contour>
      <point x="103" y="760" type="line"/>
      <point x="103.015" y="754.011" type="line"/>
      <point x="103.276" y="652.359"/>
      <point x="143.105" y="585"/>
      <point x="255" y="585" type="curve" smooth="yes"/>
      <point x="357.272" y="585"/>
      <point x="407" y="647.187"/>
      <point x="407" y="746" type="curve" smooth="yes"/>
      <point x="407" y="760" type="line"/>
      <point x="327.97" y="760" type="line"/>
      <point x="327.97" y="755.204" type="line" smooth="yes"/>
      <point x="327.97" y="704.397"/>
      <point x="311.058" y="657"/>
      <point x="255" y="657" type="curve" smooth="yes"/>
      <point x="192.87" y="657"/>
      <point x="181.666" y="703.095"/>
      <point x="181.971" y="755.147" type="curve"/>
      <point x="182" y="760" type="line"/>
    </contour>
  </outline>
</glyph>
<glyph name="dotaccent" format="2">
  <advance width="512"/>
  <unicode hex="02D9"/>
  <outline>
    <contour>
      <point x="191" y="610" type="line"/>
      <point x="325" y="610" type="line"/>
      <point x="325" y="712" type="line"/>
      <point x="191" y="712" type="line"/>
    </contour>
  </outline>
</glyph>
<glyph name="ring" format="2">
  <advance width="512"/>
  <unicode hex="02DA"/>
  <outline>
    <contour>
      <point x="148" y="696" type="curve" smooth="yes"/>
      <point x="148" y="636.876"/>
      <point x="194.313" y="591"/>
      <point x="254" y="591" type="curve" smooth="yes"/>
      <point x="313.962" y="591"/>
      <point x="359" y="636.038"/>
      <point x="359" y="696" type="curve" smooth="yes"/>
      <point x="359" y="757.802"/>
      <point x="314.647" y="803"/>
      <point x="254" y="803" type="curve" smooth="yes"/>
      <point x="193.663" y="803"/>
      <point x="148" y="756.906"/>
    </contour>
    <contour>
      <point x="254" y="647" type="curve" smooth="yes"/>
      <point x="229.072" y="647"/>
      <point x="207" y="670.011"/>
      <point x="207" y="696" type="curve" smooth="yes"/>
      <point x="207" y="725.532"/>
      <point x="226.24" y="746"/>
      <point x="254" y="746" type="curve" smooth="yes"/>
      <point x="281.159" y="746"/>
      <point x="302" y="724.291"/>
      <point x="302" y="696" type="curve" smooth="yes"/>
      <point x="302" y="669.777"/>
      <point x="279.688" y="647"/>
    </contour>
  </outline>
</glyph>
<glyph name="ogonek" format="2">
  <advance width="314"/>
  <unicode hex="02DB"/>
  <outline>
    <contour>
      <point x="60" y="-106" type="line"/>
      <point x="90.142" y="-191.217"/>
      <point x="168.505" y="-227"/>
      <point x="254" y="-227" type="curve"/>
      <point x="254" y="-138" type="line"/>
      <point x="222.075" y="-138"/>
      <point x="179.262" y="-131.694"/>
      <point x="162" y="-114" type="curve"/>
      <point x="254" y="1" type="line"/>
      <point x="254" y="13" type="line"/>
      <point x="172" y="13" type="line"/>
    </contour>
  </outline>
</glyph>
<glyph name="tilde" format="2">
  <advance width="512"/>
  <unicode hex="02DC"/>
  <outline>
    <contour>
      <point x="111" y="596" type="line"/>
      <point x="144.833" y="626.077"/>
      <point x="164.183" y="636"/>
      <point x="189" y="636" type="curve" smooth="yes"/>
      <point x="236.305" y="636"/>
      <point x="260.754" y="597"/>
      <point x="317" y="597" type="curve" smooth="yes"/>
      <point x="347.009" y="597"/>
      <point x="366.168" y="607.156"/>
      <point x="400" y="641" type="curve"/>
      <point x="400" y="734" type="line"/>
      <point x="372.217" y="703.748"/>
      <point x="352.033" y="693"/>
      <point x="323" y="693" type="curve" smooth="yes"/>
      <point x="275.918" y="693"/>
      <point x="251.728" y="732"/>
      <point x="194" y="732" type="curve" smooth="yes"/>
      <point x="163.991" y="732"/>
      <point x="144.832" y="721.844"/>
      <point x="111" y="688" type="curve"/>
    </contour>
  </outline>
</glyph>
<glyph name="uni0302" format="2">
  <unicode hex="0302"/>
  <anchor x="0" y="602" name="_top"/>
  <outline>
    <contour>
      <point x="-164.5" y="591" type="line"/>
      <point x="-64.5" y="591" type="line"/>
      <point x="0.5" y="671" type="line"/>
      <point x="65.5" y="591" type="line"/>
      <point x="164.5" y="591" type="line"/>
      <point x="46.5" y="745" type="line"/>
      <point x="-46.5" y="745" type="line"/>
    </contour>
  </outline>
</glyph>
<glyph name="uni0303" format="2">
  <unicode hex="0303"/>
  <anchor x="0" y="602" name="_top"/>
  <outline>
    <contour>
      <point x="-144.5" y="596" type="line"/>
      <point x="-110.667" y="626.077"/>
      <point x="-91.317" y="636"/>
      <point x="-66.5" y="636" type="curve" smooth="yes"/>
      <point x="-19.195" y="636"/>
      <point x="5.254" y="597"/>
      <point x="61.5" y="597" type="curve" smooth="yes"/>
      <point x="91.509" y="597"/>
      <point x="110.668" y="607.156"/>
      <point x="144.5" y="641" type="curve"/>
      <point x="144.5" y="734" type="line"/>
      <point x="116.717" y="703.748"/>
      <point x="96.533" y="693"/>
      <point x="67.5" y="693" type="curve" smooth="yes"/>
      <point x="20.418" y="693"/>
      <point x="-3.772" y="732"/>
      <point x="-61.5" y="732" type="curve" smooth="yes"/>
      <point x="-91.509" y="732"/>
      <point x="-110.668" y="721.844"/>
      <point x="-144.5" y="688" type="curve"/>
    </contour>
  </outline>
</glyph>
<glyph name="uni0307" format="2">
  <unicode hex="0307"/>
  <anchor x="0" y="602" name="_top"/>
  <outline>
    <contour>
      <point x="-67" y="610" type="line"/>
      <point x="67" y="610" type="line"/>
      <point x="67" y="712" type="line"/>
      <point x="-67" y="712" type="line"/>
    </contour>
  </outline>
</glyph>
<glyph name="uni0308" format="2">
  <unicode hex="0308"/>
  <anchor x="0" y="602" name="_top"/>
  <outline>
    <contour>
      <point x="-153.5" y="601" type="line"/>
      <point x="-43.5" y="601" type="line"/>
      <point x="-43.5" y="720" type="line"/>
      <point x="-153.5" y="720" type="line"/>
    </contour>
    <contour>
      <point x="43.5" y="601" type="line"/>
      <point x="153.5" y="601" type="line"/>
      <point x="153.5" y="720" type="line"/>
      <point x="43.5" y="720" type="line"/>
    </contour>
  </outline>
</glyph>
<glyph name="uni030C" format="2">
  <unicode hex="030C"/>
  <anchor x="0" y="602" name="_top"/>
  <outline>
    <contour>
      <point x="-46.5" y="584" type="line"/>
      <point x="46.5" y="584" type="line"/>
      <point x="164.5" y="738" type="line"/>
      <point x="65.5" y="738" type="line"/>
      <point x="0.5" y="658" type="line"/>
      <point x="-64.5" y="738" type="line"/>
      <point x="-164.5" y="738" type="line"/>
    </contour>
  </outline>
</glyph>
<glyph name="uni030F" format="2">
  <unicode hex="030F"/>
  <anchor x="0" y="602" name="_top"/>
  <outline>
    <contour>
      <point x="-110.959" y="602" type="line"/>
      <point x="-0.959206" y="602" type="line"/>
      <point x="-111.959" y="738" type="line"/>
      <point x="-251.959" y="738" type="line"/>
    </contour>
    <contour>
      <point x="85.5075" y="602" type="line"/>
      <point x="195.507" y="602" type="line"/>
      <point x="84.5075" y="738" type="line"/>
      <point x="-55.4925" y="738" type="line"/>
    </contour>
  </outline>
</glyph>
<glyph name="Kacyr" format="2">
  <advance width="624"/>
  <unicode hex="041A"/>
  <anchor x="303" y="776" name="top"/>
  <outline>
    <contour>
      <point x="174.64" y="299" type="line"/>
      <point x="336.115" y="299" type="line"/>
      <point x="336.115" y="416" type="line"/>
      <point x="174.64" y="416" type="line"/>
    </contour>
    <contour>
      <point x="60" y="0" type="line"/>
      <point x="195" y="0" type="line"/>
      <point x="195" y="707" type="line"/>
      <point x="60" y="707" type="line"/>
    </contour>
    <contour>
      <point x="463" y="0" type="line"/>
      <point x="618" y="0" type="line"/>
      <point x="336.115" y="416" type="line"/>
      <point x="250.312" y="307.112" type="line"/>
    </contour>
    <contour>
      <point x="209.679" y="308.318" type="line"/>
      <point x="282.777" y="308.317" type="line"/>
      <point x="600" y="707" type="line"/>
      <point x="439" y="707" type="line"/>
      <point x="209.599" y="396.745" type="line"/>
    </contour>
  </outline>
</glyph>
<glyph name="Ereversedcyr" format="2">
  <advance width="613"/>
  <unicode hex="042D"/>
  <anchor x="302" y="776" name="top"/>
  <outline>
    <component base="C" xScale="-1" xOffset="612.973"/>
    <contour>
      <point x="221.777" y="298.5" type="line"/>
      <point x="462.004" y="298.5" type="line"/>
      <point x="462.004" y="415.5" type="line"/>
      <point x="221.777" y="415.5" type="line"/>
    </contour>
  </outline>
</glyph>
<glyph name="Yucyr" format="2">
  <advance width="834"/>
  <unicode hex="042E"/>
  <anchor x="460" y="776" name="top"/>
  <outline>
    <component base="O" xOffset="220"/>
    <contour>
      <point x="174.64" y="299" type="line"/>
      <point x="340" y="299" type="line"/>
      <point x="340" y="416" type="line"/>
      <point x="174.64" y="416" type="line"/>
    </contour>
    <contour>
      <point x="60" y="0" type="line"/>
      <point x="195" y="0" type="line"/>
      <point x="195" y="707" type="line"/>
      <point x="60" y="707" type="line"/>
    </contour>
  </outline>
</glyph>
<glyph name="decyr" format="2">
  <advance width="606"/>
  <unicode hex="0434"/>
  <outline>
    <contour>
      <point x="459.86" y="-170" type="line"/>
      <point x="585.86" y="-170" type="line"/>
      <point x="585.86" y="111" type="line"/>
      <point x="439.86" y="111" type="line"/>
      <point x="439.86" y="0.418" type="line"/>
      <point x="459.86" y="0.418" type="line"/>
    </contour>
    <contour>
      <point x="20.623" y="-169.821" type="line"/>
      <point x="146.623" y="-169.821" type="line"/>
      <point x="146.623" y="110.944" type="line"/>
      <point x="20.623" y="110.943" type="line"/>
    </contour>
    <contour>
      <point x="389" y="0" type="line"/>
      <point x="515" y="0" type="line"/>
      <point x="515" y="532" type="line"/>
      <point x="389" y="532" type="line"/>
    </contour>
    <contour>
      <point x="50.87" y="110.943" type="curve"/>
      <point x="77.029" y="29.214" type="line"/>
      <point x="162.602" y="29.214"/>
      <point x="234.939" y="107.54"/>
      <point x="244.41" y="210.45" type="curve" smooth="yes"/>
      <point x="274" y="531.994" type="line"/>
      <point x="149" y="531.994" type="line"/>
      <point x="118.247" y="226.093" type="line" smooth="yes"/>
      <point x="111.221" y="156.205"/>
      <point x="84.809" y="111.065"/>
    </contour>
    <contour>
      <point x="80.808" y="0" type="line"/>
      <point x="428.858" y="0.425" type="line"/>
      <point x="428.858" y="111.425" type="line"/>
      <point x="80.808" y="111.425" type="line"/>
    </contour>
    <contour>
      <point x="214" y="445" type="line"/>
      <point x="428" y="445" type="line"/>
      <point x="428" y="532" type="line"/>
      <point x="214" y="532" type="line"/>
    </contour>
  </outline>
</glyph>
<glyph name="emcyr" format="2">
  <advance width="713"/>
  <unicode hex="043C"/>
  <outline>
    <contour>
      <point x="55" y="0" type="line"/>
      <point x="181" y="0" type="line"/>
      <point x="181" y="282.485" type="line" smooth="yes"/>
      <point x="181" y="348.408"/>
      <point x="169.665" y="463.221"/>
      <point x="161" y="532" type="curve"/>
      <point x="55" y="532" type="line"/>
    </contour>
    <contour>
      <point x="356.988" y="259.13" type="line"/>
      <point x="354.638" y="259" type="line"/>
      <point x="342.41" y="284"/>
      <point x="329.974" y="306.599"/>
      <point x="317.823" y="330.042" type="curve" smooth="yes"/>
      <point x="213" y="532.289" type="line"/>
      <point x="161.159" y="532.014" type="line"/>
      <point x="161.159" y="353.871" type="line"/>
      <point x="183" y="354.289" type="line"/>
      <point x="194.216" y="330.855"/>
      <point x="198.071" y="323.384"/>
      <point x="219.325" y="282.188" type="curve" smooth="yes"/>
      <point x="323.638" y="80" type="line"/>
      <point x="356.988" y="79.761" type="line"/>
    </contour>
    <contour>
      <point x="356.184" y="79.761" type="line"/>
      <point x="389.533" y="80" type="line"/>
      <point x="493.847" y="282.188" type="line" smooth="yes"/>
      <point x="515.1" y="323.384"/>
      <point x="518.955" y="330.855"/>
      <point x="530.171" y="354.289" type="curve"/>
      <point x="552.013" y="353.871" type="line"/>
      <point x="552.013" y="532.014" type="line"/>
      <point x="500.171" y="532.289" type="line"/>
      <point x="395.348" y="330.042" type="line" smooth="yes"/>
      <point x="383.197" y="306.599"/>
      <point x="370.762" y="284"/>
      <point x="358.533" y="259" type="curve"/>
      <point x="356.184" y="259.13" type="line"/>
    </contour>
    <contour>
      <point x="531.651" y="0" type="line"/>
      <point x="657.651" y="0" type="line"/>
      <point x="657.651" y="532" type="line"/>
      <point x="551.651" y="532" type="line"/>
      <point x="542.985" y="463.221"/>
      <point x="531.651" y="348.408"/>
      <point x="531.651" y="282.485" type="curve" smooth="yes"/>
    </contour>
  </outline>
</glyph>
<glyph name="tecyr" format="2">
  <advance width="456"/>
  <unicode hex="0442"/>
  <anchor x="228" y="602" name="top"/>
  <outline>
    <contour>
      <point x="18" y="420.575" type="line"/>
      <point x="438" y="421" type="line"/>
      <point x="438" y="532" type="line"/>
      <point x="18" y="532" type="line"/>
    </contour>
    <contour>
      <point x="165" y="0" type="line"/>
      <point x="292" y="0" type="line"/>
      <point x="292" y="532.012" type="line"/>
      <point x="165" y="532" type="line"/>
    </contour>
  </outline>
</glyph>
<glyph name="checyr" format="2">
  <advance width="532"/>
  <unicode hex="0447"/>
  <outline>
    <contour>
      <point x="227" y="133" type="curve" smooth="yes"/>
      <point x="279.283" y="133"/>
      <point x="331.673" y="149.192"/>
      <point x="362.709" y="167.966" type="curve"/>
      <point x="362.712" y="265.476" type="line"/>
      <point x="350" y="264.559" type="line"/>
      <point x="330.29" y="254.456"/>
      <point x="307.463" y="246"/>
      <point x="265" y="246" type="curve" smooth="yes"/>
      <point x="209.311" y="246"/>
      <point x="182" y="288.173"/>
      <point x="182" y="340" type="curve" smooth="yes"/>
      <point x="182" y="532" type="line"/>
      <point x="55" y="532" type="line"/>
      <point x="55" y="325" type="line" smooth="yes"/>
      <point x="55" y="216.646"/>
      <point x="111.509" y="133"/>
    </contour>
    <contour>
      <point x="350" y="0" type="line"/>
      <point x="477" y="0" type="line"/>
      <point x="477" y="532" type="line"/>
      <point x="350" y="532" type="line"/>
    </contour>
  </outline>
</glyph>
<glyph name="hardcyr" format="2">
  <advance width="561"/>
  <unicode hex="044A"/>
  <outline>
    <contour>
      <point x="115" y="0" type="line"/>
      <point x="241" y="0" type="line"/>
      <point x="241" y="532" type="line"/>
      <point x="115" y="532" type="line"/>
    </contour>
    <contour>
      <point x="180.549" y="421" type="line"/>
      <point x="180.549" y="532" type="line"/>
      <point x="0" y="532" type="line"/>
      <point x="0" y="420.575" type="line"/>
    </contour>
    <contour>
      <point x="221" y="0" type="line"/>
      <point x="350" y="0" type="line" smooth="yes"/>
      <point x="453" y="0"/>
      <point x="515" y="62.688"/>
      <point x="515" y="165.75" type="curve" smooth="yes"/>
      <point x="515" y="269.64"/>
      <point x="461.85" y="340"/>
      <point x="345" y="340" type="curve" smooth="yes"/>
      <point x="221" y="340" type="line"/>
      <point x="221" y="229" type="line"/>
      <point x="340" y="229" type="line" smooth="yes"/>
      <point x="368.436" y="229"/>
      <point x="389" y="205.25"/>
      <point x="389" y="172.408" type="curve" smooth="yes"/>
      <point x="389" y="137.809"/>
      <point x="367.608" y="111"/>
      <point x="340" y="111" type="curve" smooth="yes"/>
      <point x="221" y="111" type="line"/>
    </contour>
  </outline>
</glyph>
<glyph name="yucyr" format="2">
  <advance width="732"/>
  <unicode hex="044E"/>
  <anchor x="434" y="602" name="top"/>
  <outline>
    <component base="dotlessi" xOffset="-5"/>
    <component base="o" xOffset="210"/>
    <contour>
      <point x="131" y="229" type="line"/>
      <point x="339" y="229" type="line"/>
      <point x="339" y="340" type="line"/>
      <point x="131" y="340" type="line"/>
    </contour>
  </outline>
</glyph>
<glyph name="djecyr" format="2">
  <advance width="532"/>
  <unicode hex="0452"/>
  <anchor x="313" y="602" name="top"/>
  <outline>
    <contour>
      <point x="10" y="585" type="line"/>
      <point x="292" y="585" type="line"/>
      <point x="292" y="653" type="line"/>
      <point x="10" y="653" type="line"/>
    </contour>
    <contour>
      <point x="55" y="0" type="line"/>
      <point x="182" y="0" type="line"/>
      <point x="182" y="332" type="line" smooth="yes"/>
      <point x="182" y="383.856"/>
      <point x="212.067" y="426"/>
      <point x="267" y="426" type="curve" smooth="yes"/>
      <point x="325.006" y="426"/>
      <point x="350" y="385.874"/>
      <point x="350" y="332" type="curve" smooth="yes"/>
      <point x="350" y="0" type="line"/>
      <point x="477" y="0" type="line"/>
      <point x="477" y="347" type="line" smooth="yes"/>
      <point x="477" y="457.047"/>
      <point x="422.366" y="539"/>
      <point x="305" y="539" type="curve" smooth="yes"/>
      <point x="258.925" y="539"/>
      <point x="212.789" y="519.536"/>
      <point x="182" y="485" type="curve"/>
      <point x="182" y="707" type="line"/>
      <point x="55" y="707" type="line"/>
    </contour>
    <contour>
      <point x="256.781" y="-160" type="line"/>
      <point x="316.781" y="-160" type="line" smooth="yes"/>
      <point x="419.893" y="-160"/>
      <point x="476.781" y="-100.435"/>
      <point x="476.781" y="2" type="curve" smooth="yes"/>
      <point x="476.781" y="99.988" type="line"/>
      <point x="349.781" y="99.988" type="line"/>
      <point x="349.781" y="10" type="line" smooth="yes"/>
      <point x="349.781" y="-35.643"/>
      <point x="335.786" y="-50.195"/>
      <point x="288.75" y="-50.195" type="curve" smooth="yes"/>
      <point x="256.781" y="-50.195" type="line"/>
    </contour>
  </outline>
</glyph>
<glyph name="njecyr" format="2">
  <advance width="781"/>
  <unicode hex="045A"/>
  <outline>
    <contour>
      <point x="349" y="0" type="line"/>
      <point x="475" y="0" type="line"/>
      <point x="475" y="532" type="line"/>
      <point x="349" y="532" type="line"/>
    </contour>
    <contour>
      <point x="55" y="0" type="line"/>
      <point x="181" y="0" type="line"/>
      <point x="181" y="532" type="line"/>
      <point x="55" y="532" type="line"/>
    </contour>
    <contour>
      <point x="161" y="229" type="line"/>
      <point x="369" y="229" type="line"/>
      <point x="369" y="340" type="line"/>
      <point x="161" y="340" type="line"/>
    </contour>
    <contour>
      <point x="441" y="0" type="line"/>
      <point x="570" y="0" type="line" smooth="yes"/>
      <point x="673" y="0"/>
      <point x="735" y="62.688"/>
      <point x="735" y="165.75" type="curve" smooth="yes"/>
      <point x="735" y="269.64"/>
      <point x="681.85" y="340"/>
      <point x="565" y="340" type="curve" smooth="yes"/>
      <point x="441" y="340" type="line"/>
      <point x="441" y="229" type="line"/>
      <point x="560" y="229" type="line" smooth="yes"/>
      <point x="588.436" y="229"/>
      <point x="609" y="205.25"/>
      <point x="609" y="172.408" type="curve" smooth="yes"/>
      <point x="609" y="137.809"/>
      <point x="587.608" y="111"/>
      <point x="560" y="111" type="curve" smooth="yes"/>
      <point x="441" y="111" type="line"/>
    </contour>
  </outline>
</glyph>
<glyph name="dagger" format="2">
  <advance width="558"/>
  <unicode hex="2020"/>
  <outline>
    <contour>
      <point x="213" y="-160" type="line"/>
      <point x="347" y="-160" type="line"/>
      <point x="347" y="369" type="line"/>
      <point x="503" y="369" type="line"/>
      <point x="503" y="485" type="line"/>
      <point x="347" y="485" type="line"/>
      <point x="347" y="707" type="line"/>
      <point x="213" y="707" type="line"/>
      <point x="213" y="485" type="line"/>
      <point x="55" y="485" type="line"/>
      <point x="55" y="369" type="line"/>
      <point x="213" y="369" type="line"/>
    </contour>
  </outline>
</glyph>
<glyph name="ellipsis" format="2">
  <advance width="791"/>
  <unicode hex="2026"/>
  <outline>
    <contour>
      <point x="39" y="0" type="line"/>
      <point x="181" y="0" type="line"/>
      <point x="181" y="145" type="line"/>
      <point x="39" y="145" type="line"/>
    </contour>
    <contour>
      <point x="610" y="0" type="line"/>
      <point x="753" y="0" type="line"/>
      <point x="753" y="145" type="line"/>
      <point x="610" y="145" type="line"/>
    </contour>
    <contour>
      <point x="325" y="0" type="line"/>
      <point x="467" y="0" type="line"/>
      <point x="467" y="145" type="line"/>
      <point x="325" y="145" type="line"/>
    </contour>
  </outline>
</glyph>
<glyph name="perthousand" format="2">
  <advance width="1280"/>
  <unicode hex="2030"/>
  <outline>
    <contour>
      <point x="213" y="0" type="line"/>
      <point x="313" y="0" type="line"/>
      <point x="709" y="712" type="line"/>
      <point x="607" y="712" type="line"/>
    </contour>
    <contour>
      <point x="178" y="270" type="curve" smooth="yes"/>
      <point x="278.044" y="270"/>
      <point x="315" y="329.426"/>
      <point x="315" y="423" type="curve" smooth="yes"/>
      <point x="315" y="568" type="line" smooth="yes"/>
      <point x="315" y="662.129"/>
      <point x="275.067" y="713"/>
      <point x="178" y="713" type="curve" smooth="yes"/>
      <point x="83.94" y="713"/>
      <point x="40" y="659.142"/>
      <point x="40" y="568" type="curve" smooth="yes"/>
      <point x="40" y="423" type="line" smooth="yes"/>
      <point x="40" y="328.453"/>
      <point x="77.332" y="270"/>
    </contour>
    <contour>
      <point x="178" y="361" type="curve" smooth="yes"/>
      <point x="147.654" y="361"/>
      <point x="145" y="387.32"/>
      <point x="145" y="412.33" type="curve" smooth="yes"/>
      <point x="145" y="569.607" type="line" smooth="yes"/>
      <point x="145" y="597.104"/>
      <point x="147.655" y="623"/>
      <point x="178" y="623" type="curve" smooth="yes"/>
      <point x="208.346" y="623"/>
      <point x="210" y="597.104"/>
      <point x="210" y="569.607" type="curve" smooth="yes"/>
      <point x="210" y="412.33" type="line" smooth="yes"/>
      <point x="210" y="386.538"/>
      <point x="208.345" y="361"/>
    </contour>
    <contour>
      <point x="744" y="-7" type="curve" smooth="yes"/>
      <point x="844.044" y="-7"/>
      <point x="881" y="52.426"/>
      <point x="881" y="146" type="curve" smooth="yes"/>
      <point x="881" y="291" type="line" smooth="yes"/>
      <point x="881" y="385.129"/>
      <point x="841.067" y="436"/>
      <point x="744" y="436" type="curve" smooth="yes"/>
      <point x="649.94" y="436"/>
      <point x="606" y="382.142"/>
      <point x="606" y="291" type="curve" smooth="yes"/>
      <point x="606" y="146" type="line" smooth="yes"/>
      <point x="606" y="51.453"/>
      <point x="643.332" y="-7"/>
    </contour>
    <contour>
      <point x="744" y="84" type="curve" smooth="yes"/>
      <point x="713.654" y="84"/>
      <point x="711" y="110.32"/>
      <point x="711" y="135.33" type="curve" smooth="yes"/>
      <point x="711" y="292.607" type="line" smooth="yes"/>
      <point x="711" y="320.104"/>
      <point x="713.655" y="346"/>
      <point x="744" y="346" type="curve" smooth="yes"/>
      <point x="774.346" y="346"/>
      <point x="776" y="320.104"/>
      <point x="776" y="292.607" type="curve" smooth="yes"/>
      <point x="776" y="135.33" type="line" smooth="yes"/>
      <point x="776" y="109.538"/>
      <point x="774.345" y="84"/>
    </contour>
    <contour>
      <point x="1103" y="-7" type="curve" smooth="yes"/>
      <point x="1203.04" y="-7"/>
      <point x="1240" y="52.426"/>
      <point x="1240" y="146" type="curve" smooth="yes"/>
      <point x="1240" y="291" type="line" smooth="yes"/>
      <point x="1240" y="385.129"/>
      <point x="1200.07" y="436"/>
      <point x="1103" y="436" type="curve" smooth="yes"/>
      <point x="1008.94" y="436"/>
      <point x="965" y="382.142"/>
      <point x="965" y="291" type="curve" smooth="yes"/>
      <point x="965" y="146" type="line" smooth="yes"/>
      <point x="965" y="51.453"/>
      <point x="1002.33" y="-7"/>
    </contour>
    <contour>
      <point x="1103" y="84" type="curve" smooth="yes"/>
      <point x="1072.65" y="84"/>
      <point x="1070" y="110.32"/>
      <point x="1070" y="135.33" type="curve" smooth="yes"/>
      <point x="1070" y="292.607" type="line" smooth="yes"/>
      <point x="1070" y="320.104"/>
      <point x="1072.65" y="346"/>
      <point x="1103" y="346" type="curve" smooth="yes"/>
      <point x="1133.35" y="346"/>
      <point x="1135" y="320.104"/>
      <point x="1135" y="292.607" type="curve" smooth="yes"/>
      <point x="1135" y="135.33" type="line" smooth="yes"/>
      <point x="1135" y="109.538"/>
      <point x="1133.35" y="84"/>
    </contour>
  </outline>
</glyph>
<glyph name="minute" format="2">
  <advance width="248"/>
  <unicode hex="2032"/>
  <outline>
    <contour>
      <point x="40" y="602" type="line"/>
      <point x="149" y="602" type="line"/>
      <point x="213" y="738" type="line"/>
      <point x="72" y="738" type="line"/>
    </contour>
  </outline>
</glyph>
<glyph name="second" format="2">
  <advance width="448"/>
  <unicode hex="2033"/>
  <outline>
    <contour>
      <point x="230" y="602" type="line"/>
      <point x="339" y="602" type="line"/>
      <point x="403" y="738" type="line"/>
      <point x="262" y="738" type="line"/>
    </contour>
    <contour>
      <point x="40" y="602" type="line"/>
      <point x="149" y="602" type="line"/>
      <point x="213" y="738" type="line"/>
      <point x="72" y="738" type="line"/>
    </contour>
  </outline>
</glyph>
<glyph name="guilsinglleft" format="2">
  <advance width="305"/>
  <unicode hex="2039"/>
  <outline>
    <contour>
      <point x="18" y="270" type="line"/>
      <point x="250" y="38" type="line"/>
      <point x="250" y="172" type="line"/>
      <point x="153" y="270" type="line"/>
      <point x="250" y="369" type="line"/>
      <point x="250" y="503" type="line"/>
    </contour>
  </outline>
</glyph>
<glyph name="trademark" format="2">
  <advance width="829"/>
  <unicode hex="2122"/>
  <outline>
    <contour>
      <point x="139" y="303" type="line"/>
      <point x="232" y="303" type="line"/>
      <point x="232" y="624" type="line"/>
      <point x="341" y="624" type="line"/>
      <point x="341" y="707" type="line"/>
      <point x="31" y="707" type="line"/>
      <point x="31" y="624" type="line"/>
      <point x="139" y="624" type="line"/>
    </contour>
    <contour>
      <point x="398" y="303" type="line"/>
      <point x="485" y="303" type="line"/>
      <point x="485" y="514" type="line"/>
      <point x="487" y="514" type="line"/>
      <point x="553" y="361" type="line"/>
      <point x="615" y="361" type="line"/>
      <point x="680" y="514" type="line"/>
      <point x="683" y="514" type="line"/>
      <point x="683" y="303" type="line"/>
      <point x="769" y="303" type="line"/>
      <point x="769" y="707" type="line"/>
      <point x="684" y="707" type="line"/>
      <point x="587" y="474" type="line"/>
      <point x="584" y="474" type="line"/>
      <point x="484" y="707" type="line"/>
      <point x="398" y="707" type="line"/>
    </contour>
  </outline>
</glyph>
<glyph name="divisionslash" format="2">
  <advance width="180"/>
  <unicode hex="2215"/>
  <outline>
    <contour>
      <point x="-138" y="0" type="line"/>
      <point x="-38" y="0" type="line"/>
      <point x="357" y="712" type="line"/>
      <point x="256" y="712" type="line"/>
    </contour>
  </outline>
</glyph>
<glyph name="fl" format="2">
  <advance width="635"/>
  <unicode hex="FB02"/>
  <outline>
    <contour>
      <point x="617" y="0" type="line"/>
      <point x="617" y="110" type="line"/>
      <point x="585" y="110" type="line" smooth="yes"/>
      <point x="547.356" y="110"/>
      <point x="524" y="114.934"/>
      <point x="524" y="170" type="curve" smooth="yes"/>
      <point x="524" y="707" type="line"/>
      <point x="397" y="707" type="line"/>
      <point x="397" y="162" type="line" smooth="yes"/>
      <point x="397" y="59.207"/>
      <point x="456.367" y="0"/>
      <point x="559" y="0" type="curve" smooth="yes"/>
    </contour>
    <contour>
      <point x="93" y="0" type="line"/>
      <point x="219" y="0" type="line"/>
      <point x="219" y="443" type="line"/>
      <point x="314" y="443" type="line"/>
      <point x="314" y="532" type="line"/>
      <point x="219" y="532" type="line"/>
      <point x="219" y="547" type="line" smooth="yes"/>
      <point x="219" y="600.476"/>
      <point x="230.837" y="620.898"/>
      <point x="299.482" y="620.898" type="curve" smooth="yes"/>
      <point x="314" y="620.898" type="line"/>
      <point x="314" y="707" type="line"/>
      <point x="241" y="707" type="line" smooth="yes"/>
      <point x="150.413" y="707"/>
      <point x="93" y="656.254"/>
      <point x="93" y="564" type="curve" smooth="yes"/>
      <point x="93" y="532" type="line"/>
      <point x="37" y="532" type="line"/>
      <point x="37" y="443" type="line"/>
      <point x="93" y="443" type="line"/>
    </contour>
  </outline>
</glyph>
<glyph name="Decyr.loclBGR" format="2">
  <advance width="703"/>
  <outline>
    <component base="Elcyr.loclBGR" xOffset="42"/>
    <contour>
      <point x="334.41" y="-0.37" type="line"/>
      <point x="558.22" y="-0.37" type="line"/>
      <point x="558.22" y="-169.82" type="line"/>
      <point x="692.22" y="-169.82" type="line"/>
      <point x="692.22" y="117.26" type="line"/>
      <point x="334.41" y="116.62" type="line"/>
    </contour>
    <contour>
      <point x="214.412" y="-0.375" type="line"/>
      <point x="353.537" y="-0.375" type="line"/>
      <point x="353.537" y="116.621" type="line"/>
      <point x="214.412" y="116.621" type="line"/>
    </contour>
    <contour>
      <point x="10.62" y="-169.82" type="line"/>
      <point x="144.62" y="-169.82" type="line"/>
      <point x="144.62" y="-0.37" type="line"/>
      <point x="233.62" y="-0.37" type="line"/>
      <point x="233.62" y="116.62" type="line"/>
      <point x="10.62" y="116.94" type="line"/>
    </contour>
  </outline>
</glyph>
<glyph name="Nacute.loclPLK" format="2">
  <advance width="649"/>
  <outline>
    <component base="N"/>
    <contour>
      <point x="268" y="789" type="line"/>
      <point x="377" y="789" type="line"/>
      <point x="441" y="925" type="line"/>
      <point x="300" y="925" type="line"/>
    </contour>
  </outline>
</glyph>
<glyph name="eight.osf" format="2">
  <advance width="537"/>
  <outline>
    <contour>
      <point x="137" y="371" type="curve"/>
      <point x="84.041" y="339.598"/>
      <point x="51.4" y="281.257"/>
      <point x="51.4" y="218" type="curve" smooth="yes"/>
      <point x="51.4" y="193.256" type="line" smooth="yes"/>
      <point x="51.4" y="66.656"/>
      <point x="133.749" y="-11"/>
      <point x="268" y="-11" type="curve" smooth="yes"/>
      <point x="397.734" y="-11"/>
      <point x="485.581" y="72.575"/>
      <point x="485.581" y="196" type="curve" smooth="yes"/>
      <point x="485.581" y="221.836" type="line" smooth="yes"/>
      <point x="485.581" y="287.495"/>
      <point x="456.842" y="338.178"/>
      <point x="401" y="371" type="curve"/>
      <point x="446.882" y="399.338"/>
      <point x="473.639" y="449.434"/>
      <point x="473.639" y="507" type="curve" smooth="yes"/>
      <point x="473.639" y="528.437" type="line" smooth="yes"/>
      <point x="473.639" y="643.438"/>
      <point x="393.147" y="718"/>
      <point x="269" y="718" type="curve" smooth="yes"/>
      <point x="150.602" y="718"/>
      <point x="65.115" y="637.076"/>
      <point x="65.115" y="525" type="curve" smooth="yes"/>
      <point x="65.115" y="510.52" type="line" smooth="yes"/>
      <point x="65.115" y="444.057"/>
      <point x="88.075" y="399.495"/>
    </contour>
    <contour>
      <point x="194" y="506" type="curve" smooth="yes"/>
      <point x="194" y="525" type="line" smooth="yes"/>
      <point x="194" y="571.296"/>
      <point x="225.049" y="604"/>
      <point x="269" y="604" type="curve" smooth="yes"/>
      <point x="313.805" y="604"/>
      <point x="345" y="571.574"/>
      <point x="345" y="525" type="curve" smooth="yes"/>
      <point x="345" y="506" type="line" smooth="yes"/>
      <point x="345" y="456.704"/>
      <point x="314.689" y="424"/>
      <point x="269" y="424" type="curve" smooth="yes"/>
      <point x="223.062" y="424"/>
      <point x="194" y="455.774"/>
    </contour>
    <contour>
      <point x="181" y="197" type="curve" smooth="yes"/>
      <point x="181" y="221" type="line" smooth="yes"/>
      <point x="181" y="275"/>
      <point x="217.348" y="313"/>
      <point x="269" y="313" type="curve" smooth="yes"/>
      <point x="321.877" y="313"/>
      <point x="357" y="276.28"/>
      <point x="357" y="221" type="curve" smooth="yes"/>
      <point x="357" y="197" type="line" smooth="yes"/>
      <point x="357" y="140.132"/>
      <point x="321.677" y="102"/>
      <point x="269" y="102" type="curve" smooth="yes"/>
      <point x="217.427" y="102"/>
      <point x="181" y="141.325"/>
    </contour>
  </outline>
</glyph>
<glyph name="five.osf" format="2">
  <advance width="508"/>
  <outline>
    <contour>
      <point x="50.021" y="18" type="line"/>
      <point x="50.021" y="12.487" type="line" smooth="yes"/>
      <point x="50.021" y="-106.56"/>
      <point x="120.254" y="-171"/>
      <point x="250" y="-171" type="curve" smooth="yes"/>
      <point x="380.345" y="-171"/>
      <point x="457" y="-94.716"/>
      <point x="457" y="35" type="curve" smooth="yes"/>
      <point x="457" y="101" type="line" smooth="yes"/>
      <point x="457" y="232.175"/>
      <point x="392.743" y="305"/>
      <point x="277" y="305" type="curve" smooth="yes"/>
      <point x="237.864" y="305"/>
      <point x="202.292" y="293.377"/>
      <point x="176" y="272" type="curve"/>
      <point x="176" y="432" type="line"/>
      <point x="442" y="432" type="line"/>
      <point x="442" y="547" type="line"/>
      <point x="60" y="547" type="line"/>
      <point x="60" y="144" type="line"/>
      <point x="176" y="144" type="line"/>
      <point x="189.407" y="175.054"/>
      <point x="215.18" y="192"/>
      <point x="249" y="192" type="curve" smooth="yes"/>
      <point x="305.422" y="192"/>
      <point x="327.311" y="154.05"/>
      <point x="327.311" y="56.231" type="curve" smooth="yes"/>
      <point x="327.311" y="43.427" type="line" smooth="yes"/>
      <point x="327.311" y="-24.779"/>
      <point x="301.989" y="-58"/>
      <point x="250" y="-58" type="curve" smooth="yes"/>
      <point x="201.373" y="-58"/>
      <point x="173.017" y="-31.285"/>
      <point x="173.017" y="14.526" type="curve" smooth="yes"/>
      <point x="173.017" y="18" type="line"/>
    </contour>
  </outline>
</glyph>
<glyph name="four.sups" format="2">
  <advance width="359"/>
  <outline>
    <contour>
      <point x="30" y="498" type="line"/>
      <point x="196" y="498" type="line"/>
      <point x="196" y="440" type="line"/>
      <point x="301" y="440" type="line"/>
      <point x="301" y="498" type="line"/>
      <point x="329" y="498" type="line"/>
      <point x="329" y="590" type="line"/>
      <point x="301" y="590" type="line"/>
      <point x="301" y="680" type="line"/>
      <point x="196" y="680" type="line"/>
      <point x="196" y="590" type="line"/>
      <point x="135" y="590" type="line"/>
      <point x="253" y="869" type="line"/>
      <point x="147" y="869" type="line"/>
      <point x="30" y="590" type="line"/>
    </contour>
  </outline>
</glyph>
<glyph name="four.tlf" format="2">
  <advance width="524"/>
  <outline>
    <contour>
      <point x="48" y="113" type="line"/>
      <point x="318" y="113" type="line"/>
      <point x="318" y="0" type="line"/>
      <point x="452" y="0" type="line"/>
      <point x="452" y="113" type="line"/>
      <point x="510" y="113" type="line"/>
      <point x="510" y="230" type="line"/>
      <point x="452" y="230" type="line"/>
      <point x="452" y="396" type="line"/>
      <point x="318" y="396" type="line"/>
      <point x="318" y="230" type="line"/>
      <point x="182" y="230" type="line"/>
      <point x="384" y="707" type="line"/>
      <point x="250" y="707" type="line"/>
      <point x="48" y="230" type="line"/>
    </contour>
  </outline>
</glyph>
<glyph name="hardcyr.loclBGR" format="2">
  <advance width="561"/>
  <outline>
    <contour>
      <point x="115" y="205.241" type="line"/>
      <point x="241" y="205.241" type="line"/>
      <point x="241" y="532" type="line"/>
      <point x="115" y="532" type="line"/>
    </contour>
    <contour>
      <point x="180.549" y="421" type="line"/>
      <point x="180.549" y="532" type="line"/>
      <point x="0" y="532" type="line"/>
      <point x="0" y="420.575" type="line"/>
    </contour>
    <contour>
      <point x="115.391" y="205.241" type="line"/>
      <point x="115.391" y="77.443"/>
      <point x="200.589" y="-6"/>
      <point x="328.504" y="-6" type="curve" smooth="yes"/>
      <point x="463.913" y="-6"/>
      <point x="545" y="74.396"/>
      <point x="545" y="195.026" type="curve" smooth="yes"/>
      <point x="545" y="321.338"/>
      <point x="461.793" y="406"/>
      <point x="337.653" y="406" type="curve" smooth="yes"/>
      <point x="292.558" y="406"/>
      <point x="256.245" y="400.667"/>
      <point x="221" y="390" type="curve"/>
      <point x="221" y="279" type="line"/>
      <point x="257.432" y="289.667"/>
      <point x="294.968" y="295"/>
      <point x="341.25" y="295" type="curve" smooth="yes"/>
      <point x="388.897" y="295"/>
      <point x="419" y="259.581"/>
      <point x="419" y="203.52" type="curve" smooth="yes"/>
      <point x="419" y="152.952"/>
      <point x="377.126" y="105"/>
      <point x="327.161" y="105" type="curve" smooth="yes"/>
      <point x="281.055" y="105"/>
      <point x="250.632" y="144.206"/>
      <point x="241" y="205.241" type="curve"/>
    </contour>
  </outline>
</glyph>
<glyph name="nacute.loclPLK" format="2">
  <advance width="532"/>
  <outline>
    <component base="n"/>
    <contour>
      <point x="210" y="602" type="line"/>
      <point x="319" y="602" type="line"/>
      <point x="383" y="738" type="line"/>
      <point x="242" y="738" type="line"/>
    </contour>
  </outline>
</glyph>
<glyph name="nine.osf" format="2">
  <advance width="528"/>
  <outline>
    <contour>
      <point x="132" y="-160" type="line"/>
      <point x="273" y="-160" type="line"/>
      <point x="436" y="147" type="line" smooth="yes"/>
      <point x="467.094" y="205.563"/>
      <point x="482" y="256.763"/>
      <point x="482" y="305" type="curve" smooth="yes"/>
      <point x="482" y="336" type="line" smooth="yes"/>
      <point x="482" y="464.045"/>
      <point x="401.506" y="539"/>
      <point x="264" y="539" type="curve" smooth="yes"/>
      <point x="129.262" y="539"/>
      <point x="46" y="460.322"/>
      <point x="46" y="333" type="curve" smooth="yes"/>
      <point x="46" y="301" type="line" smooth="yes"/>
      <point x="46" y="184.12"/>
      <point x="116.628" y="110"/>
      <point x="228" y="110" type="curve" smooth="yes"/>
      <point x="247.85" y="110"/>
      <point x="265.078" y="113.313"/>
      <point x="280" y="120" type="curve"/>
    </contour>
    <contour>
      <point x="180" y="307" type="curve" smooth="yes"/>
      <point x="180" y="338" type="line" smooth="yes"/>
      <point x="180" y="394.162"/>
      <point x="212.159" y="429"/>
      <point x="264" y="429" type="curve" smooth="yes"/>
      <point x="316.074" y="429"/>
      <point x="347" y="395.465"/>
      <point x="347" y="339" type="curve" smooth="yes"/>
      <point x="347" y="306" type="line" smooth="yes"/>
      <point x="347" y="250.653"/>
      <point x="316.202" y="218"/>
      <point x="264" y="218" type="curve" smooth="yes"/>
      <point x="212.147" y="218"/>
      <point x="180" y="252.06"/>
    </contour>
  </outline>
</glyph>
<glyph name="one.dnom" format="2">
  <advance width="259"/>
  <outline>
    <contour>
      <point x="99" y="0" type="line"/>
      <point x="205" y="0" type="line"/>
      <point x="205" y="429" type="line"/>
      <point x="100" y="429" type="line"/>
      <point x="30" y="378" type="line"/>
      <point x="30" y="265" type="line"/>
      <point x="99" y="314" type="line"/>
    </contour>
  </outline>
</glyph>
<glyph name="sacute.loclPLK" format="2">
  <advance width="485"/>
  <outline>
    <component base="s"/>
    <contour>
      <point x="186" y="602" type="line"/>
      <point x="295" y="602" type="line"/>
      <point x="359" y="738" type="line"/>
      <point x="218" y="738" type="line"/>
    </contour>
  </outline>
</glyph>
<glyph name="softcyr.loclBGR" format="2">
  <advance width="540"/>
  <outline>
    <contour>
      <point x="55" y="205.241" type="line"/>
      <point x="181" y="205.241" type="line"/>
      <point x="181" y="532" type="line"/>
      <point x="55" y="532" type="line"/>
    </contour>
    <contour>
      <point x="55.391" y="205.241" type="line"/>
      <point x="55.391" y="77.443"/>
      <point x="140.589" y="-6"/>
      <point x="268.504" y="-6" type="curve" smooth="yes"/>
      <point x="403.913" y="-6"/>
      <point x="485" y="74.396"/>
      <point x="485" y="195.026" type="curve" smooth="yes"/>
      <point x="485" y="321.338"/>
      <point x="401.793" y="406"/>
      <point x="277.653" y="406" type="curve" smooth="yes"/>
      <point x="232.558" y="406"/>
      <point x="196.245" y="400.667"/>
      <point x="161" y="390" type="curve"/>
      <point x="161" y="279" type="line"/>
      <point x="197.432" y="289.667"/>
      <point x="234.968" y="295"/>
      <point x="281.25" y="295" type="curve" smooth="yes"/>
      <point x="328.897" y="295"/>
      <point x="359" y="259.581"/>
      <point x="359" y="203.52" type="curve" smooth="yes"/>
      <point x="359" y="152.952"/>
      <point x="317.126" y="105"/>
      <point x="267.161" y="105" type="curve" smooth="yes"/>
      <point x="221.055" y="105"/>
      <point x="190.632" y="144.206"/>
      <point x="181" y="205.241" type="curve"/>
    </contour>
  </outline>
</glyph>
<glyph name="t_t" format="2">
  <advance width="688"/>
  <outline>
    <component base="t"/>
    <component base="t" xOffset="328"/>
    <contour>
      <point x="491.68" y="443" type="line"/>
      <point x="491.68" y="532" type="line"/>
      <point x="146.271" y="532" type="line"/>
      <point x="146.271" y="443" type="line"/>
    </contour>
  </outline>
</glyph>
<glyph name="three.dnom" format="2">
  <advance width="349"/>
  <outline>
    <contour>
      <point x="38.016" y="124" type="line"/>
      <point x="38.016" y="119.656" type="line" smooth="yes"/>
      <point x="38.016" y="30.244"/>
      <point x="83.281" y="-7"/>
      <point x="174" y="-7" type="curve" smooth="yes"/>
      <point x="250.644" y="-7"/>
      <point x="307.923" y="42.408"/>
      <point x="307.923" y="121" type="curve" smooth="yes"/>
      <point x="307.923" y="131.125" type="line" smooth="yes"/>
      <point x="307.923" y="171.753"/>
      <point x="296.475" y="211.531"/>
      <point x="254" y="228" type="curve"/>
      <point x="285.228" y="246.113"/>
      <point x="300.93" y="273.943"/>
      <point x="300.93" y="310" type="curve" smooth="yes"/>
      <point x="300.93" y="317.729" type="line" smooth="yes"/>
      <point x="300.93" y="395.446"/>
      <point x="251.645" y="436"/>
      <point x="172" y="436" type="curve" smooth="yes"/>
      <point x="94.933" y="436"/>
      <point x="40" y="396.128"/>
      <point x="40" y="315" type="curve" smooth="yes"/>
      <point x="40" y="305" type="line"/>
      <point x="134.01" y="305" type="line"/>
      <point x="134.01" y="308.583" type="line" smooth="yes"/>
      <point x="134.01" y="332.571"/>
      <point x="138.266" y="348"/>
      <point x="168" y="348" type="curve" smooth="yes"/>
      <point x="191.541" y="348"/>
      <point x="199.93" y="331.447"/>
      <point x="199.93" y="310" type="curve" smooth="yes"/>
      <point x="199.93" y="303.398" type="line" smooth="yes"/>
      <point x="199.93" y="267.4"/>
      <point x="182.787" y="263.027"/>
      <point x="152.243" y="263.027" type="curve" smooth="yes"/>
      <point x="141" y="263.027" type="line"/>
      <point x="141" y="175.893" type="line"/>
      <point x="152.234" y="175.893" type="line" smooth="yes"/>
      <point x="183.711" y="175.893"/>
      <point x="206.933" y="166.221"/>
      <point x="206.933" y="130" type="curve" smooth="yes"/>
      <point x="206.933" y="123.614" type="line" smooth="yes"/>
      <point x="206.933" y="101.117"/>
      <point x="198.938" y="80"/>
      <point x="171" y="80" type="curve" smooth="yes"/>
      <point x="140.297" y="80"/>
      <point x="133.029" y="93.66"/>
      <point x="133.029" y="119.233" type="curve" smooth="yes"/>
      <point x="133.029" y="124" type="line"/>
    </contour>
  </outline>
</glyph>
<glyph name="three.numr" format="2">
  <advance width="350"/>
  <outline>
    <contour>
      <point x="38.116" y="405" type="line"/>
      <point x="38.116" y="400.656" type="line" smooth="yes"/>
      <point x="38.116" y="311.244"/>
      <point x="83.381" y="274"/>
      <point x="174.1" y="274" type="curve" smooth="yes"/>
      <point x="250.744" y="274"/>
      <point x="308.022" y="323.408"/>
      <point x="308.022" y="402" type="curve" smooth="yes"/>
      <point x="308.022" y="412.125" type="line" smooth="yes"/>
      <point x="308.022" y="452.753"/>
      <point x="296.575" y="492.531"/>
      <point x="254.1" y="509" type="curve"/>
      <point x="285.328" y="527.113"/>
      <point x="301.03" y="554.943"/>
      <point x="301.03" y="591" type="curve" smooth="yes"/>
      <point x="301.03" y="598.729" type="line" smooth="yes"/>
      <point x="301.03" y="676.446"/>
      <point x="251.745" y="717"/>
      <point x="172.1" y="717" type="curve" smooth="yes"/>
      <point x="95.032" y="717"/>
      <point x="40.1" y="677.128"/>
      <point x="40.1" y="596" type="curve" smooth="yes"/>
      <point x="40.1" y="586" type="line"/>
      <point x="134.11" y="586" type="line"/>
      <point x="134.11" y="589.583" type="line" smooth="yes"/>
      <point x="134.11" y="613.571"/>
      <point x="138.366" y="629"/>
      <point x="168.1" y="629" type="curve" smooth="yes"/>
      <point x="191.64" y="629"/>
      <point x="200.03" y="612.447"/>
      <point x="200.03" y="591" type="curve" smooth="yes"/>
      <point x="200.03" y="584.398" type="line" smooth="yes"/>
      <point x="200.03" y="548.4"/>
      <point x="182.887" y="544.027"/>
      <point x="152.342" y="544.027" type="curve" smooth="yes"/>
      <point x="141.1" y="544.027" type="line"/>
      <point x="141.1" y="456.893" type="line"/>
      <point x="152.334" y="456.893" type="line" smooth="yes"/>
      <point x="183.811" y="456.893"/>
      <point x="207.033" y="447.221"/>
      <point x="207.033" y="411" type="curve" smooth="yes"/>
      <point x="207.033" y="404.614" type="line" smooth="yes"/>
      <point x="207.033" y="382.117"/>
      <point x="199.037" y="361"/>
      <point x="171.1" y="361" type="curve" smooth="yes"/>
      <point x="140.397" y="361"/>
      <point x="133.128" y="374.66"/>
      <point x="133.128" y="400.233" type="curve" smooth="yes"/>
      <point x="133.128" y="405" type="line"/>
    </contour>
  </outline>
</glyph>
<glyph name="three.osf" format="2">
  <advance width="516"/>
  <outline>
    <contour>
      <point x="56" y="31" type="line"/>
      <point x="56" y="9" type="line" smooth="yes"/>
      <point x="56" y="-103.437"/>
      <point x="131.481" y="-167"/>
      <point x="265" y="-167" type="curve" smooth="yes"/>
      <point x="391.077" y="-167"/>
      <point x="474.909" y="-87.924"/>
      <point x="474.909" y="31" type="curve" smooth="yes"/>
      <point x="474.909" y="44.655" type="line" smooth="yes"/>
      <point x="474.909" y="128.64"/>
      <point x="444.532" y="181.477"/>
      <point x="381" y="208" type="curve"/>
      <point x="432.858" y="234.864"/>
      <point x="463.878" y="285.767"/>
      <point x="463.878" y="344" type="curve" smooth="yes"/>
      <point x="463.878" y="356.355" type="line" smooth="yes"/>
      <point x="463.878" y="471.347"/>
      <point x="389.157" y="540"/>
      <point x="264" y="540" type="curve" smooth="yes"/>
      <point x="137.611" y="540"/>
      <point x="61" y="470.56"/>
      <point x="61" y="356" type="curve" smooth="yes"/>
      <point x="61" y="340" type="line"/>
      <point x="184.005" y="340" type="line"/>
      <point x="184.005" y="344.294" type="line" smooth="yes"/>
      <point x="184.005" y="402.198"/>
      <point x="207.734" y="429"/>
      <point x="259" y="429" type="curve" smooth="yes"/>
      <point x="305.496" y="429"/>
      <point x="333.869" y="398.682"/>
      <point x="333.869" y="349" type="curve" smooth="yes"/>
      <point x="333.869" y="336.594" type="line" smooth="yes"/>
      <point x="333.869" y="271.53"/>
      <point x="308.712" y="251.996"/>
      <point x="224.92" y="251.996" type="curve" smooth="yes"/>
      <point x="217" y="251.996" type="line"/>
      <point x="217" y="141.006" type="line"/>
      <point x="224.557" y="141.006" type="line" smooth="yes"/>
      <point x="313.169" y="141.006"/>
      <point x="344.852" y="116.773"/>
      <point x="344.852" y="49" type="curve" smooth="yes"/>
      <point x="344.852" y="35.634" type="line" smooth="yes"/>
      <point x="344.852" y="-25.431"/>
      <point x="316.381" y="-58"/>
      <point x="263" y="-58" type="curve" smooth="yes"/>
      <point x="205.513" y="-58"/>
      <point x="181.013" y="-33.137"/>
      <point x="181.013" y="25.201" type="curve" smooth="yes"/>
      <point x="181.013" y="31" type="line"/>
    </contour>
  </outline>
</glyph>
<glyph name="three.tlf" format="2">
  <advance width="524"/>
  <outline>
    <contour>
      <point x="54" y="193" type="line"/>
      <point x="54" y="171" type="line" smooth="yes"/>
      <point x="54" y="55"/>
      <point x="130" y="-11"/>
      <point x="263" y="-11" type="curve" smooth="yes"/>
      <point x="390" y="-11"/>
      <point x="473" y="71.984"/>
      <point x="473" y="194" type="curve" smooth="yes"/>
      <point x="473" y="210" type="line" smooth="yes"/>
      <point x="473" y="296.006"/>
      <point x="441" y="350"/>
      <point x="379" y="376" type="curve"/>
      <point x="430" y="402"/>
      <point x="462" y="457"/>
      <point x="462" y="516" type="curve" smooth="yes"/>
      <point x="462" y="523" type="line" smooth="yes"/>
      <point x="462" y="647"/>
      <point x="389" y="718"/>
      <point x="262" y="718" type="curve" smooth="yes"/>
      <point x="135" y="718"/>
      <point x="59" y="647"/>
      <point x="59" y="529" type="curve" smooth="yes"/>
      <point x="59" y="512" type="line"/>
      <point x="182" y="512" type="line"/>
      <point x="182" y="517" type="line" smooth="yes"/>
      <point x="182" y="576"/>
      <point x="206" y="604"/>
      <point x="257" y="604" type="curve" smooth="yes"/>
      <point x="303" y="604"/>
      <point x="332" y="572"/>
      <point x="332" y="521" type="curve" smooth="yes"/>
      <point x="332" y="515" type="line" smooth="yes"/>
      <point x="332" y="443"/>
      <point x="307.274" y="421"/>
      <point x="224" y="421" type="curve" smooth="yes"/>
      <point x="215" y="421" type="line"/>
      <point x="215" y="307" type="line"/>
      <point x="224" y="307" type="line" smooth="yes"/>
      <point x="312" y="307"/>
      <point x="343" y="282"/>
      <point x="343" y="212" type="curve" smooth="yes"/>
      <point x="343" y="196" type="line" smooth="yes"/>
      <point x="343" y="135"/>
      <point x="314" y="102"/>
      <point x="261" y="102" type="curve" smooth="yes"/>
      <point x="204" y="102"/>
      <point x="179" y="126.548"/>
      <point x="179" y="181" type="curve" smooth="yes"/>
      <point x="179" y="193" type="line"/>
    </contour>
  </outline>
</glyph>
<glyph name="two.numr" format="2">
  <advance width="354"/>
  <outline>
    <contour>
      <point x="45" y="280" type="line"/>
      <point x="313" y="280" type="line"/>
      <point x="313" y="371" type="line"/>
      <point x="178" y="371" type="line"/>
      <point x="272" y="487" type="line" smooth="yes"/>
      <point x="298.022" y="519.112"/>
      <point x="312.96" y="543.257"/>
      <point x="312.96" y="586" type="curve" smooth="yes"/>
      <point x="312.96" y="591.42" type="line" smooth="yes"/>
      <point x="312.96" y="669.354"/>
      <point x="257.724" y="716"/>
      <point x="179" y="716" type="curve" smooth="yes"/>
      <point x="104.555" y="716"/>
      <point x="42" y="676.389"/>
      <point x="42" y="596" type="curve" smooth="yes"/>
      <point x="42" y="581" type="line"/>
      <point x="143.031" y="581" type="line"/>
      <point x="143.031" y="585.465" type="line" smooth="yes"/>
      <point x="143.031" y="605.772"/>
      <point x="148.791" y="628"/>
      <point x="174" y="628" type="curve" smooth="yes"/>
      <point x="195.851" y="628"/>
      <point x="205.965" y="612.172"/>
      <point x="205.965" y="592" type="curve" smooth="yes"/>
      <point x="205.965" y="587.758" type="line" smooth="yes"/>
      <point x="205.965" y="566.638"/>
      <point x="198.957" y="554.446"/>
      <point x="185" y="537" type="curve" smooth="yes"/>
      <point x="45" y="362" type="line"/>
    </contour>
  </outline>
</glyph>
<glyph name="uni0301.loclPLK" format="2">
  <outline>
    <contour>
      <point x="-56" y="602" type="line"/>
      <point x="53" y="602" type="line"/>
      <point x="117" y="738" type="line"/>
      <point x="-24" y="738" type="line"/>
    </contour>
  </outline>
</glyph>
<glyph name="uni030A0301" format="2">
  <anchor x="0" y="591" name="_t.ring"/>
  <outline>
    <contour>
      <point x="-105.5" y="696" type="curve" smooth="yes"/>
      <point x="-105.5" y="636.876"/>
      <point x="-59.187" y="591"/>
      <point x="0.5" y="591" type="curve" smooth="yes"/>
      <point x="60.462" y="591"/>
      <point x="105.5" y="636.038"/>
      <point x="105.5" y="696" type="curve" smooth="yes"/>
      <point x="105.5" y="757.802"/>
      <point x="61.147" y="803"/>
      <point x="0.5" y="803" type="curve" smooth="yes"/>
      <point x="-59.837" y="803"/>
      <point x="-105.5" y="756.906"/>
    </contour>
    <contour>
      <point x="0.5" y="647" type="curve" smooth="yes"/>
      <point x="-24.428" y="647"/>
      <point x="-46.5" y="670.011"/>
      <point x="-46.5" y="696" type="curve" smooth="yes"/>
      <point x="-46.5" y="725.532"/>
      <point x="-27.26" y="746"/>
      <point x="0.5" y="746" type="curve" smooth="yes"/>
      <point x="27.659" y="746"/>
      <point x="48.5" y="724.291"/>
      <point x="48.5" y="696" type="curve" smooth="yes"/>
      <point x="48.5" y="669.777"/>
      <point x="26.188" y="647"/>
    </contour>
    <contour>
      <point x="-69.142" y="830.991" type="line"/>
      <point x="40.858" y="830.991" type="line"/>
      <point x="156.699" y="936" type="line"/>
      <point x="16.699" y="936" type="line"/>
    </contour>
  </outline>
</glyph>
<glyph name="vecyr.loclBGR" format="2">
  <advance width="530"/>
  <outline>
    <contour>
      <point x="55" y="199.605" type="line"/>
      <point x="55" y="63.834"/>
      <point x="132.839" y="-6"/>
      <point x="269.32" y="-6" type="curve" smooth="yes"/>
      <point x="403.281" y="-6"/>
      <point x="475" y="70.64"/>
      <point x="475" y="230.082" type="curve" smooth="yes"/>
      <point x="475" y="305.125"/>
      <point x="445.867" y="366.853"/>
      <point x="393" y="388" type="curve"/>
      <point x="393" y="393.526" type="line"/>
      <point x="435.838" y="434.108"/>
      <point x="455" y="476.972"/>
      <point x="455" y="535.255" type="curve" smooth="yes"/>
      <point x="455" y="632.843"/>
      <point x="364.326" y="707"/>
      <point x="270.431" y="707" type="curve" smooth="yes"/>
      <point x="130.305" y="707"/>
      <point x="55" y="629.283"/>
      <point x="55" y="514.199" type="curve"/>
      <point x="181" y="514.199" type="line"/>
      <point x="181" y="553.881"/>
      <point x="209.023" y="596"/>
      <point x="254.753" y="596" type="curve" smooth="yes"/>
      <point x="299.942" y="596"/>
      <point x="329" y="562.241"/>
      <point x="329" y="509.742" type="curve" smooth="yes"/>
      <point x="329" y="457.217"/>
      <point x="299.624" y="420"/>
      <point x="258.165" y="420" type="curve" smooth="yes"/>
      <point x="161" y="420" type="line"/>
      <point x="161" y="309" type="line"/>
      <point x="288.047" y="309" type="line" smooth="yes"/>
      <point x="321.576" y="309"/>
      <point x="349" y="253.709"/>
      <point x="349" y="219.121" type="curve" smooth="yes"/>
      <point x="349" y="143.69"/>
      <point x="325.92" y="106"/>
      <point x="266.388" y="106" type="curve" smooth="yes"/>
      <point x="223.622" y="106"/>
      <point x="181" y="132.251"/>
      <point x="181" y="199.605" type="curve"/>
    </contour>
    <contour>
      <point x="55" y="199.605" type="line"/>
      <point x="181" y="199.605" type="line"/>
      <point x="181" y="514.199" type="line"/>
      <point x="55" y="514.199" type="line"/>
    </contour>
  </outline>
</glyph>
<glyph name="zacute.loclPLK" format="2">
  <advance width="465"/>
  <outline>
    <component base="z"/>
    <contour>
      <point x="176" y="602" type="line"/>
      <point x="285" y="602" type="line"/>
      <point x="349" y="738" type="line"/>
      <point x="208" y="738" type="line"/>
    </contour>
  </outline>
</glyph>
<glyph name="zero.dnom" format="2">
  <advance width="359"/>
  <outline>
    <contour>
      <point x="42" y="145" type="line" smooth="yes"/>
      <point x="42" y="41.609"/>
      <point x="86.132" y="-7"/>
      <point x="180" y="-7" type="curve" smooth="yes"/>
      <point x="272.832" y="-7"/>
      <point x="317" y="42.004"/>
      <point x="317" y="145" type="curve" smooth="yes"/>
      <point x="317" y="291" type="line" smooth="yes"/>
      <point x="317" y="388.503"/>
      <point x="272.764" y="435"/>
      <point x="180" y="435" type="curve" smooth="yes"/>
      <point x="88.61" y="435"/>
      <point x="42" y="386.364"/>
      <point x="42" y="291" type="curve" smooth="yes"/>
    </contour>
    <contour>
      <point x="180" y="84" type="curve" smooth="yes"/>
      <point x="156.3" y="84"/>
      <point x="147" y="100.064"/>
      <point x="147" y="141" type="curve" smooth="yes"/>
      <point x="147" y="288" type="line" smooth="yes"/>
      <point x="147" y="328.406"/>
      <point x="156.607" y="345"/>
      <point x="180" y="345" type="curve" smooth="yes"/>
      <point x="203.186" y="345"/>
      <point x="212" y="329.3"/>
      <point x="212" y="288" type="curve" smooth="yes"/>
      <point x="212" y="141" type="line" smooth="yes"/>
      <point x="212" y="98.779"/>
      <point x="203.703" y="84"/>
    </contour>
  </outline>
</glyph>
<glyph name="zero.numr" format="2">
  <advance width="359"/>
  <outline>
    <contour>
      <point x="42" y="422" type="line" smooth="yes"/>
      <point x="42" y="318.609"/>
      <point x="86.132" y="270"/>
      <point x="180" y="270" type="curve" smooth="yes"/>
      <point x="272.832" y="270"/>
      <point x="317" y="319.004"/>
      <point x="317" y="422" type="curve" smooth="yes"/>
      <point x="317" y="568" type="line" smooth="yes"/>
      <point x="317" y="665.503"/>
      <point x="272.764" y="712"/>
      <point x="180" y="712" type="curve" smooth="yes"/>
      <point x="88.61" y="712"/>
      <point x="42" y="663.364"/>
      <point x="42" y="568" type="curve" smooth="yes"/>
    </contour>
    <contour>
      <point x="180" y="361" type="curve" smooth="yes"/>
      <point x="156.3" y="361"/>
      <point x="147" y="377.064"/>
      <point x="147" y="418" type="curve" smooth="yes"/>
      <point x="147" y="565" type="line" smooth="yes"/>
      <point x="147" y="605.406"/>
      <point x="156.607" y="622"/>
      <point x="180" y="622" type="curve" smooth="yes"/>
      <point x="203.186" y="622"/>
      <point x="212" y="606.3"/>
      <point x="212" y="565" type="curve" smooth="yes"/>
      <point x="212" y="418" type="line" smooth="yes"/>
      <point x="212" y="375.779"/>
      <point x="203.703" y="361"/>
    </contour>
  </outline>
</glyph>
<glyph name="zero.sups" format="2">
  <advance width="359"/>
  <outline>
    <contour>
      <point x="42" y="578" type="line" smooth="yes"/>
      <point x="42" y="474.609"/>
      <point x="86.132" y="426"/>
      <point x="180" y="426" type="curve" smooth="yes"/>
      <point x="272.832" y="426"/>
      <point x="317" y="475.004"/>
      <point x="317" y="578" type="curve" smooth="yes"/>
      <point x="317" y="724" type="line" smooth="yes"/>
      <point x="317" y="821.503"/>
      <point x="272.764" y="868"/>
      <point x="180" y="868" type="curve" smooth="yes"/>
      <point x="88.61" y="868"/>
      <point x="42" y="819.364"/>
      <point x="42" y="724" type="curve" smooth="yes"/>
    </contour>
    <contour>
      <point x="180" y="517" type="curve" smooth="yes"/>
      <point x="156.3" y="517"/>
      <point x="147" y="533.064"/>
      <point x="147" y="574" type="curve" smooth="yes"/>
      <point x="147" y="721" type="line" smooth="yes"/>
      <point x="147" y="761.406"/>
      <point x="156.607" y="778"/>
      <point x="180" y="778" type="curve" smooth="yes"/>
      <point x="203.186" y="778"/>
      <point x="212" y="762.3"/>
      <point x="212" y="721" type="curve" smooth="yes"/>
      <point x="212" y="574" type="line" smooth="yes"/>
      <point x="212" y="531.779"/>
      <point x="203.703" y="517"/>
    </contour>
  </outline>
</glyph>
